<svg width="288" height="61" viewBox="0 0 288 61" fill="none" xmlns="http://www.w3.org/2000/svg">
<g clip-path="url(#clip0_909_9171)">
<path fill-rule="evenodd" clip-rule="evenodd" d="M91.9554 12.7871C101.743 12.7871 109.671 20.3504 109.671 29.7394C109.671 39.1284 101.743 46.6917 91.9554 46.6917V41.58C98.79 41.58 104.312 36.2595 104.312 29.7394C104.312 23.2193 98.79 17.8989 91.9554 17.8989V12.7871ZM55.6499 12.7871C59.6413 12.7871 63.3047 14.039 66.2572 16.1254C67.0227 16.5949 67.4601 17.3773 67.4601 18.264C67.4601 19.6724 66.2572 20.8199 64.781 20.8199C64.1248 20.8199 63.5781 20.6113 63.086 20.2461C61.0082 18.7335 58.4384 17.8989 55.6499 17.8989C48.8153 17.8989 43.2382 23.2193 43.2382 29.7394C43.2382 36.2595 48.8153 41.58 55.6499 41.58C68.499 41.58 70.5767 26.1925 79.2703 17.8989C80.1452 17.0121 81.0747 16.2819 82.1682 15.6038L82.2229 15.5516C82.3869 15.4995 82.4963 15.3952 82.6056 15.343C83.6445 14.7171 84.7927 14.1955 85.9956 13.7782C86.1596 13.726 86.3237 13.6738 86.4877 13.6217L86.5971 13.5695C88.292 13.0479 90.0964 12.7871 91.9554 12.7871V17.8989C91.7914 17.8989 91.6273 17.8989 91.4633 17.8989C89.1669 18.0032 87.1985 18.6291 85.4488 19.6724C81.8948 21.7588 79.5437 25.5144 79.5437 29.7394C79.5437 36.2595 85.1208 41.58 91.9554 41.58V46.6917C83.3711 46.6917 76.2631 40.8497 74.5681 33.182C70.3033 40.2238 65.4918 46.9525 55.6499 46.6917C45.8627 46.4309 37.9346 39.0762 37.9346 29.7394C37.9346 20.4026 45.8627 12.7871 55.6499 12.7871Z" fill="#0077AE"/>
<path fill-rule="evenodd" clip-rule="evenodd" d="M34.2709 43.9794C34.2709 44.0315 34.2709 44.0315 34.2709 44.0837C34.2709 45.492 33.068 46.6917 31.5371 46.6917C30.0608 46.6917 28.8579 45.5442 28.8579 44.0837V44.0315V43.9794V43.9272V41.9451V41.8929V16.7513V16.647V15.3952V15.343C28.9126 13.9347 30.1155 12.7871 31.5918 12.7871C33.068 12.7871 34.3256 13.9347 34.3256 15.343V15.3952C34.3256 24.9928 34.3256 32.3475 34.3256 41.9451V43.9794H34.2709Z" fill="#0077AE"/>
<path fill-rule="evenodd" clip-rule="evenodd" d="M22.0234 41.5278C15.5715 41.1627 10.4319 35.9987 10.4319 29.7394C10.4319 23.4279 15.2981 18.3683 22.1328 17.951V17.8989C23.609 17.8467 24.7026 16.7513 24.7026 15.343C24.7026 13.9347 23.445 12.7871 21.9687 12.7871C21.914 12.7871 21.75 12.7871 21.6953 12.8393C15.2981 13.2044 9.77576 16.8557 6.98724 22.0718V15.4995V15.4473C6.98724 14.039 5.78434 12.8393 4.25339 12.8393C2.77711 12.8393 1.57422 14.039 1.57422 15.4473V15.4995V16.7513V16.8035V41.9451C1.57422 41.9972 1.57422 41.9972 1.57422 42.0494V43.9794V44.0837C1.57422 44.1358 1.57422 44.1358 1.57422 44.188C1.57422 45.5963 2.77711 46.796 4.25339 46.796C5.72967 46.796 6.98724 45.6485 6.98724 44.188C6.98724 44.1358 6.98724 44.1358 6.98724 44.0837V42.0494V37.4071C9.77576 42.6232 15.2981 46.2744 21.75 46.6396C21.8047 46.6396 21.914 46.6396 21.9687 46.6396C23.445 46.6396 24.6479 45.492 24.6479 44.0837C24.6479 42.6753 23.445 41.5799 22.0234 41.5278Z" fill="#0077AE"/>
<path fill-rule="evenodd" clip-rule="evenodd" d="M111.584 18.003C111.639 18.003 111.693 18.003 111.803 18.0551C111.857 18.0551 111.967 18.0551 112.076 18.1073C117.872 19.0984 122.246 23.9493 122.246 29.7392C122.246 35.6334 117.653 40.5365 111.748 41.4232C110.436 41.5797 109.397 42.6751 109.397 43.9791C109.397 45.3875 110.6 46.535 112.076 46.535C112.185 46.535 112.295 46.535 112.35 46.4828H112.404C112.459 46.4828 112.514 46.4828 112.623 46.4828C117.817 45.7004 122.301 42.7794 124.98 38.6587C127.659 42.7273 132.143 45.7004 137.337 46.4828C137.392 46.4828 137.446 46.4828 137.501 46.4828H137.556C137.665 46.535 137.774 46.535 137.829 46.535C139.305 46.535 140.563 45.3875 140.563 43.9791C140.563 42.6751 139.524 41.5797 138.212 41.4232C132.252 40.5365 127.714 35.6334 127.714 29.7392C127.714 23.8972 132.143 19.0984 137.884 18.1073C137.938 18.0551 138.102 18.0551 138.157 18.0551C138.212 18.003 138.266 18.003 138.376 18.003C139.579 17.7943 140.563 16.7511 140.563 15.4992C140.563 14.0909 139.36 12.9434 137.829 12.9434C137.774 12.9434 137.61 12.9434 137.501 12.9434H137.446V12.9955H137.392H137.337C137.173 12.9955 137.009 13.0477 136.845 13.0477C131.869 13.9344 127.55 16.8033 124.98 20.7675C122.301 16.8033 118.036 13.9344 113.006 13.0477C112.787 12.9955 112.678 12.9955 112.459 12.9955H112.404L112.35 12.9434C112.24 12.9434 112.131 12.9434 112.021 12.9434C110.545 12.9434 109.342 14.0909 109.342 15.4992C109.342 16.7511 110.326 17.7943 111.584 18.003Z" fill="#0077AE"/>
</g>
<path d="M160.06 46V13.4766H181.488V19.0469H166.798V26.9531H180.095V32.5234H166.798V46H160.06ZM215.718 29.7383C215.718 40.3398 209.115 46.4492 200.535 46.4492C191.865 46.4492 185.306 40.2949 185.306 29.7383C185.306 19.1367 191.865 13.0273 200.535 13.0273C209.115 13.0273 215.718 19.1367 215.718 29.7383ZM208.845 29.7383C208.845 22.7754 205.566 19.002 200.535 19.002C195.503 19.002 192.179 22.7754 192.179 29.7383C192.179 36.7012 195.503 40.4746 200.535 40.4746C205.566 40.4746 208.845 36.7012 208.845 29.7383ZM220.57 13.4766H228.925L237.955 35.5332H238.314L247.343 13.4766H255.699V46H249.14V24.707H248.871L240.38 45.8652H235.888L227.398 24.6172H227.128V46H220.57V13.4766ZM278.833 22.7754C278.564 20.2148 276.498 18.6875 273.218 18.6875C269.804 18.6875 267.917 20.2598 267.873 22.416C267.828 24.752 270.298 25.8301 273.083 26.459L276.003 27.1777C281.574 28.4355 285.751 31.2656 285.751 36.7012C285.751 42.6758 281.08 46.4492 273.173 46.4492C265.312 46.4492 260.281 42.8105 260.101 35.8477H266.66C266.884 39.127 269.49 40.7891 273.083 40.7891C276.632 40.7891 278.923 39.127 278.923 36.7012C278.923 34.5 276.902 33.4668 273.353 32.5684L269.804 31.7148C264.324 30.3672 260.955 27.627 260.955 22.8652C260.955 16.9355 266.166 13.0273 273.263 13.0273C280.451 13.0273 285.212 17.0254 285.302 22.7754H278.833Z" fill="black"/>
<defs>
<clipPath id="clip0_909_9171">
<rect width="140" height="34.4262" fill="white" transform="translate(0.866699 12.7871)"/>
</clipPath>
</defs>
</svg>
