<?xml version="1.0" encoding="utf-8"?>
<!-- Generator: Adobe Illustrator 24.1.1, SVG Export Plug-In . SVG Version: 6.00 Build 0)  -->
<svg version="1.1" id="레이어_1" xmlns="http://www.w3.org/2000/svg" xmlns:xlink="http://www.w3.org/1999/xlink" x="0px"
	 y="0px" viewBox="0 0 100 100" style="enable-background:new 0 0 100 100;" xml:space="preserve">
<style type="text/css">
	.그림자_x0020_만들기{fill:none;}
	.모퉁이_x0020_둥글리기_x0020_2pt{fill:#FFFFFF;stroke:#231815;stroke-miterlimit:10;}
	.라이브_x0020_반사_x0020_X{fill:none;}
	.경사_x0020_부드럽게{fill:url(#SVGID_1_);}
	.황혼{fill:#FFFFFF;}
	.잎_GS{fill:#FFE100;}
	.퐁파두르_GS{fill-rule:evenodd;clip-rule:evenodd;fill:#4CACE2;}
	.st0{display:none;}
	.st1{display:inline;fill:#FFFFFF;}
	.st2{fill:#FFFFFF;}
	.st3{fill:#FDFDFD;}
</style>
<linearGradient id="SVGID_1_" gradientUnits="userSpaceOnUse" x1="0" y1="0" x2="0.7071" y2="0.7071">
	<stop  offset="0" style="stop-color:#E6E7EA"/>
	<stop  offset="0.1747" style="stop-color:#E2E3E6"/>
	<stop  offset="0.3538" style="stop-color:#D6D7DA"/>
	<stop  offset="0.5349" style="stop-color:#C1C4C5"/>
	<stop  offset="0.7174" style="stop-color:#A4A8A8"/>
	<stop  offset="0.8993" style="stop-color:#808584"/>
	<stop  offset="1" style="stop-color:#686E6C"/>
</linearGradient>
<g class="st0">
	<path class="st1" d="M225.8,9.3c-4.2-8.1-14.5-11-22.2-6.1c-7.8,4.9-10,15.6-4,22.6c3,3.4,3.4,5.8,0.9,9.6
		c5.7-1.5,11.6-2.6,17.2-4.7C226.4,27.5,230,17.4,225.8,9.3z M214.2,23.5c-3.6-0.3-9.2-7.5-8.8-11.2c0.2-1.4,1-2.3,2.1-2.9
		c0.6-0.4,1.3-0.2,1.7,0.4c0.7,1,1.3,1.8,0.7,3.4c-1.4,3.4,0.8,6.1,4.2,6c2.3-0.6,3.6,0.9,3.6,2.2C217.8,23,215.9,23.6,214.2,23.5z"
		/>
	<path class="st1" d="M174.9,9.2c-9.3-0.1-17.2,7.6-17.3,17.1c-0.2,9.3,7.7,17.1,17.2,17.1c9.5,0,17.2-7.8,17.1-17.2
		C191.8,17.1,184.1,9.3,174.9,9.2z M172.7,39.4c-7.6-1.4-12-7.9-10.3-16c5.7,2.8,10.9,1.8,16.1-1.5c2.3-1.5,5.1-1.8,7.6-0.1
		c2.6,1.8,1.7,4.6,1.5,7C186.8,35.5,179.5,40.6,172.7,39.4z"/>
	<path class="st1" d="M189.5,42.9h-6.8c-2.4,1.3-5.2,2.1-8.2,2.1c-3,0-5.9-0.8-8.3-2.1h-6.1c-8.2,0-15,4.3-15,9.7h59.4
		C204.5,47.2,197.7,42.9,189.5,42.9z"/>
	<path class="st1" d="M206.9,94.1V61.8c0-4.6-3.8-8.4-8.4-8.4h-47.4c-4.6,0-8.4,3.8-8.4,8.4v32.4H139v1h71.6v-1H206.9z M170.1,72.8
		c0.4-1.9,1.9-3.4,3.7-3.7c3.3-0.6,6.2,2.2,5.6,5.6c-0.4,1.9-1.9,3.4-3.7,3.7C172.4,79,169.5,76.2,170.1,72.8z"/>
</g>
<g>
	<path class="st2" d="M51.4,87.3h-39c-2.6,0-4.7-1.6-4.7-3.6v-4.4h3.5v4.2c0.2,0.1,0.6,0.3,1.2,0.3h39c0.7,0,1.1-0.2,1.2-0.3V73.2
		c-0.2-0.1-0.6-0.3-1.2-0.3v-3.5c2.6,0,4.7,1.6,4.7,3.6v10.7C56.2,85.8,54.1,87.3,51.4,87.3z"/>
	<path class="st2" d="M21.6,44.2c0,8.7-0.1,17.4,0,26.1c0.1,4.5-1.7,6.6-6.3,6.5C0,76.8,1,78.2,1,62.9c0.1-14.7,0.1-29.4,0-44.1
		c-0.1-4.8,1.7-6.8,6.6-6.8c15,0.1,14.1-1.2,14,13.7C21.6,31.9,21.6,38.1,21.6,44.2z"/>
	<path class="st2" d="M78.9,19c0-4.3-1.8-6.9-6.3-6.9c-14.5,0-29,0-43.6,0c-2.1,0-2.5,0.4-2.5,2.8c0.2,19.8,0.2,39.6,0,59.4
		c0,2.5,0.4,2.8,2.5,2.8c5.5-0.1,10.9-0.1,16.4,0L59.2,77c4.1,0.1,8.2,0.1,12.3,0c5.7-0.1,7.4-1.7,7.4-7.3c0-8.4,0-16.7,0-25.1
		C78.9,36.1,78.9,27.5,78.9,19z M42.1,67.7c-1.8,0-2.5-1.4-2.9-2.9c0.3-1.7,1.3-2.9,3-2.9c1.6,0,2.9,0.9,3,2.7
		C45.3,66.5,44.1,67.7,42.1,67.7z M42.8,57.4c-2.1,0.4-3.2-0.9-3.4-2.8c-0.1-1.7,1.1-2.7,2.8-3.1c1.6,0.2,2.9,0.9,3,2.7
		C45.4,55.9,44.4,57.1,42.8,57.4z M39.3,44.5c0-1.7,1.1-2.9,2.9-3c1.7,0,2.8,1.1,3,2.8c-0.1,1.9-1.1,2.8-2.9,2.9
		C40.5,47.3,39.4,46.2,39.3,44.5z M53,67.6c-1.8,0.1-3-0.9-3.1-2.7c-0.1-1.7,0.8-3,2.6-3.1c1.7-0.1,2.8,0.9,3,2.7
		C55.6,66.3,54.8,67.5,53,67.6z M52.5,41.6c1.7-0.1,2.8,0.7,3,2.6c0,1.8-0.8,2.9-2.6,3.1c-1.8,0.2-2.9-0.9-3-2.6
		C49.8,42.9,50.8,41.7,52.5,41.6z M52.8,57.4c-1.8-0.1-2.9-1.1-2.8-2.9c0-1.7,1.1-2.9,2.8-2.9c1.8,0,2.7,1.2,2.8,2.8
		C55.4,56.2,54.7,57.4,52.8,57.4z M60.5,44.5c-0.1-1.8,1-2.8,2.7-3.1c1.8,0.1,3,1.1,3.1,2.8c0.1,1.8-1,2.9-2.8,2.9
		C61.7,47.3,60.6,46.3,60.5,44.5z M63.4,51.6c1.9,0,3.2,1.4,2.9,3.3c-0.2,1.5-1.3,2.8-4.1,2.4c-0.7-0.1-1.7-1.1-1.7-2.9
		C60.6,52.6,61.8,51.5,63.4,51.6z M63.3,67.6c-1.9,0-2.8-1.2-2.7-3c0.1-1.8,1.1-2.9,2.9-2.9c1.8,0.1,2.6,1.4,3,2.8
		C65.9,66.4,65.1,67.6,63.3,67.6z M68.9,29.5c0,1.8-1.5,3.2-3.2,3.2H40.1c-1.8,0-3.2-1.5-3.2-3.2v-7.1c0-1.8,1.5-3.2,3.2-3.2h25.5
		c1.8,0,3.2,1.5,3.2,3.2V29.5z"/>
	<g>
		<path class="st3" d="M84.8,55.4c-0.5,0-1-0.2-1.5-0.5c-1.2-0.8-1.4-2.5-0.6-3.6c1.8-2.5,1.9-6.1,0.3-7.8c-1-1-1-2.7,0-3.7
			c1-1,2.7-1,3.7,0c3.4,3.5,3.6,9.8,0.3,14.5C86.4,55,85.6,55.4,84.8,55.4z"/>
		<path class="st3" d="M91.6,63c-0.7,0-1.4-0.3-1.9-0.9c-0.9-1.1-0.9-2.7,0.2-3.7c3.1-2.7,4.8-6.4,4.9-10.4c0.1-4.4-1.7-8.8-5-12.2
			c-1-1-1-2.7,0-3.7c1-1,2.7-1,3.7,0c4.3,4.3,6.7,10.2,6.6,16c-0.2,5.4-2.5,10.5-6.7,14.1C92.8,62.8,92.2,63,91.6,63z"/>
	</g>
</g>
</svg>
