<svg width="42" height="42" viewBox="0 0 42 42" fill="none" xmlns="http://www.w3.org/2000/svg">
<path d="M25.4333 26.7C25.1889 26.4111 25.0667 26.0831 25.0667 25.716C25.0667 25.3498 25.1889 25.0444 25.4333 24.8L27.9 22.3333H18.3333C17.9556 22.3333 17.6391 22.2053 17.384 21.9493C17.128 21.6942 17 21.3778 17 21C17 20.6222 17.128 20.3053 17.384 20.0493C17.6391 19.7942 17.9556 19.6667 18.3333 19.6667H27.9L25.4333 17.2C25.1667 16.9333 25.0333 16.6169 25.0333 16.2507C25.0333 15.8836 25.1667 15.5667 25.4333 15.3C25.6778 15.0333 25.9836 14.9 26.3507 14.9C26.7169 14.9 27.0222 15.0222 27.2667 15.2667L32.0667 20.0667C32.2 20.2 32.2947 20.3444 32.3507 20.5C32.4058 20.6556 32.4333 20.8222 32.4333 21C32.4333 21.1778 32.4058 21.3444 32.3507 21.5C32.2947 21.6556 32.2 21.8 32.0667 21.9333L27.2667 26.7333C26.9778 27.0222 26.6613 27.1498 26.3173 27.116C25.9724 27.0831 25.6778 26.9444 25.4333 26.7ZM11.6667 33C10.9333 33 10.3053 32.7391 9.78267 32.2173C9.26089 31.6947 9 31.0667 9 30.3333V11.6667C9 10.9333 9.26089 10.3053 9.78267 9.78267C10.3053 9.26089 10.9333 9 11.6667 9H19.6667C20.0444 9 20.3613 9.12756 20.6173 9.38267C20.8724 9.63867 21 9.95556 21 10.3333C21 10.7111 20.8724 11.0276 20.6173 11.2827C20.3613 11.5387 20.0444 11.6667 19.6667 11.6667H11.6667V30.3333H19.6667C20.0444 30.3333 20.3613 30.4613 20.6173 30.7173C20.8724 30.9724 21 31.2889 21 31.6667C21 32.0444 20.8724 32.3609 20.6173 32.616C20.3613 32.872 20.0444 33 19.6667 33H11.6667Z" fill="black"/>
</svg>
