<svg width="24" height="24" viewBox="0 0 24 24" fill="none" xmlns="http://www.w3.org/2000/svg">
<path d="M13.9445 24H9.44455C9.14455 24 8.88455 23.9 8.66455 23.7C8.44455 23.5 8.31454 23.25 8.27454 22.95L7.91455 20.16C7.65455 20.06 7.40975 19.94 7.18015 19.8C6.94975 19.66 6.72455 19.51 6.50455 19.35L3.89455 20.43C3.61455 20.53 3.33455 20.54 3.05455 20.46C2.77455 20.38 2.55455 20.21 2.39455 19.95L0.174545 16.08C0.0145454 15.82 -0.0354545 15.54 0.0245455 15.24C0.0845455 14.94 0.234545 14.7 0.474545 14.52L2.72455 12.81C2.70455 12.67 2.69455 12.5348 2.69455 12.4044V11.5944C2.69455 11.4648 2.70455 11.33 2.72455 11.19L0.474545 9.48C0.234545 9.3 0.0845455 9.06 0.0245455 8.76C-0.0354545 8.46 0.0145454 8.18 0.174545 7.92L2.39455 4.05C2.53455 3.77 2.74935 3.5948 3.03895 3.5244C3.32935 3.4548 3.61455 3.47 3.89455 3.57L6.50455 4.65C6.72455 4.49 6.95455 4.34 7.19455 4.2C7.43455 4.06 7.67455 3.94 7.91455 3.84L8.27454 1.05C8.31454 0.75 8.44455 0.5 8.66455 0.3C8.88455 0.1 9.14455 0 9.44455 0H13.9445C14.2445 0 14.5045 0.1 14.7245 0.3C14.9445 0.5 15.0745 0.75 15.1145 1.05L15.4745 3.84C15.7345 3.94 15.9797 4.06 16.2101 4.2C16.4397 4.34 16.6645 4.49 16.8845 4.65L19.4945 3.57C19.7745 3.47 20.0545 3.46 20.3345 3.54C20.6145 3.62 20.8345 3.79 20.9945 4.05L23.2145 7.92C23.3745 8.18 23.4245 8.46 23.3645 8.76C23.3045 9.06 23.1545 9.3 22.9145 9.48L20.6645 11.19C20.6845 11.33 20.6945 11.4648 20.6945 11.5944V12.4044C20.6945 12.5348 20.6745 12.67 20.6345 12.81L22.8845 14.52C23.1245 14.7 23.2745 14.94 23.3345 15.24C23.3945 15.54 23.3445 15.82 23.1845 16.08L20.9645 19.92C20.8045 20.18 20.5797 20.3552 20.2901 20.4456C19.9997 20.5352 19.7145 20.53 19.4345 20.43L16.8845 19.35C16.6645 19.51 16.4345 19.66 16.1945 19.8C15.9545 19.94 15.7145 20.06 15.4745 20.16L15.1145 22.95C15.0745 23.25 14.9445 23.5 14.7245 23.7C14.5045 23.9 14.2445 24 13.9445 24ZM11.7545 16.2C12.9145 16.2 13.9045 15.79 14.7245 14.97C15.5445 14.15 15.9545 13.16 15.9545 12C15.9545 10.84 15.5445 9.85 14.7245 9.03C13.9045 8.21 12.9145 7.8 11.7545 7.8C10.5745 7.8 9.57935 8.21 8.76895 9.03C7.95935 9.85 7.55455 10.84 7.55455 12C7.55455 13.16 7.95935 14.15 8.76895 14.97C9.57935 15.79 10.5745 16.2 11.7545 16.2Z" fill="white"/>
</svg>
