<svg width="18" height="18" viewBox="0 0 18 18" fill="none" xmlns="http://www.w3.org/2000/svg">
<path d="M14.7398 2.44078H13.0998V1.62078C13.0998 1.4033 13.0134 1.19473 12.8596 1.04095C12.7059 0.887174 12.4973 0.800781 12.2798 0.800781C12.0623 0.800781 11.8538 0.887174 11.7 1.04095C11.5462 1.19473 11.4598 1.4033 11.4598 1.62078V2.44078H6.5398V1.62078C6.5398 1.4033 6.45341 1.19473 6.29963 1.04095C6.14585 0.887174 5.93728 0.800781 5.7198 0.800781C5.50233 0.800781 5.29376 0.887174 5.13998 1.04095C4.9862 1.19473 4.8998 1.4033 4.8998 1.62078V2.44078H3.2598C2.60737 2.44078 1.98166 2.69996 1.52032 3.1613C1.05898 3.62264 0.799805 4.24835 0.799805 4.90078V14.7408C0.799805 15.3932 1.05898 16.0189 1.52032 16.4803C1.98166 16.9416 2.60737 17.2008 3.2598 17.2008H14.7398C15.3922 17.2008 16.0179 16.9416 16.4793 16.4803C16.9406 16.0189 17.1998 15.3932 17.1998 14.7408V4.90078C17.1998 4.24835 16.9406 3.62264 16.4793 3.1613C16.0179 2.69996 15.3922 2.44078 14.7398 2.44078ZM15.5598 14.7408C15.5598 14.9583 15.4734 15.1668 15.3196 15.3206C15.1659 15.4744 14.9573 15.5608 14.7398 15.5608H3.2598C3.04233 15.5608 2.83376 15.4744 2.67998 15.3206C2.5262 15.1668 2.4398 14.9583 2.4398 14.7408V9.00078H15.5598V14.7408ZM15.5598 7.36078H2.4398V4.90078C2.4398 4.6833 2.5262 4.47473 2.67998 4.32095C2.83376 4.16717 3.04233 4.08078 3.2598 4.08078H4.8998V4.90078C4.8998 5.11826 4.9862 5.32683 5.13998 5.48061C5.29376 5.63439 5.50233 5.72078 5.7198 5.72078C5.93728 5.72078 6.14585 5.63439 6.29963 5.48061C6.45341 5.32683 6.5398 5.11826 6.5398 4.90078V4.08078H11.4598V4.90078C11.4598 5.11826 11.5462 5.32683 11.7 5.48061C11.8538 5.63439 12.0623 5.72078 12.2798 5.72078C12.4973 5.72078 12.7059 5.63439 12.8596 5.48061C13.0134 5.32683 13.0998 5.11826 13.0998 4.90078V4.08078H14.7398C14.9573 4.08078 15.1659 4.16717 15.3196 4.32095C15.4734 4.47473 15.5598 4.6833 15.5598 4.90078V7.36078Z" fill="#4D4D4D"/>
</svg>
