<svg width="155" height="155" viewBox="0 0 155 155" fill="none" xmlns="http://www.w3.org/2000/svg">
<circle cx="77.5" cy="77.5" r="64" fill="#0064DD" fill-opacity="0.1"/>
<circle cx="77.5" cy="77.5" r="72" stroke="#0064DD" stroke-opacity="0.03" stroke-width="10"/>
<g filter="url(#filter0_bd_1057_14596)">
<rect x="27.5039" y="62.7422" width="87.5979" height="53.689" rx="10" transform="rotate(-15 27.5039 62.7422)" fill="#1F3753"/>
</g>
<rect x="27.5039" y="62.7422" width="87.5979" height="53.689" rx="10" transform="rotate(-15 27.5039 62.7422)" fill="#0064DD"/>
<rect x="44.5664" y="99.1289" width="11.303" height="2.35478" rx="1.17739" transform="rotate(-15 44.5664 99.1289)" fill="#F9F9F9"/>
<rect x="70.0415" y="92.3008" width="11.303" height="2.35478" rx="1.17739" transform="rotate(-15 70.0415 92.3008)" fill="#F9F9F9"/>
<rect x="57.3037" y="95.7148" width="11.303" height="2.35478" rx="1.17739" transform="rotate(-15 57.3037 95.7148)" fill="#F9F9F9"/>
<rect x="82.7788" y="88.8867" width="11.303" height="2.35478" rx="1.17739" transform="rotate(-15 82.7788 88.8867)" fill="#F9F9F9"/>
<defs>
<filter id="filter0_bd_1057_14596" x="-20.251" y="-7.68359" width="194.019" height="170.039" filterUnits="userSpaceOnUse" color-interpolation-filters="sRGB">
<feFlood flood-opacity="0" result="BackgroundImageFix"/>
<feGaussianBlur in="BackgroundImageFix" stdDeviation="25"/>
<feComposite in2="SourceAlpha" operator="in" result="effect1_backgroundBlur_1057_14596"/>
<feColorMatrix in="SourceAlpha" type="matrix" values="0 0 0 0 0 0 0 0 0 0 0 0 0 0 0 0 0 0 127 0" result="hardAlpha"/>
<feOffset dy="4"/>
<feGaussianBlur stdDeviation="5"/>
<feComposite in2="hardAlpha" operator="out"/>
<feColorMatrix type="matrix" values="0 0 0 0 0.259792 0 0 0 0 0.334306 0 0 0 0 0.483333 0 0 0 0.5 0"/>
<feBlend mode="normal" in2="effect1_backgroundBlur_1057_14596" result="effect2_dropShadow_1057_14596"/>
<feBlend mode="normal" in="SourceGraphic" in2="effect2_dropShadow_1057_14596" result="shape"/>
</filter>
</defs>
</svg>
