<svg width="730" height="602" viewBox="0 0 730 602" fill="none" xmlns="http://www.w3.org/2000/svg">
<path d="M569.5 512.5C570.052 512.5 570.5 512.052 570.5 511.5C570.5 510.948 570.052 510.5 569.5 510.5V512.5ZM526.51 445.079H527.51H526.51ZM569.5 510.5H548V512.5H569.5V510.5ZM539 501.5V450.823H537V501.5H539ZM532.255 444.078H526.511V446.078H532.255V444.078ZM526.511 444.078C525.959 444.078 525.51 444.526 525.51 445.079H527.51C527.51 445.631 527.063 446.078 526.511 446.078V444.078ZM539 450.823C539 447.098 535.98 444.078 532.255 444.078V446.078C534.876 446.078 537 448.202 537 450.823H539ZM548 510.5C543.03 510.5 539 506.471 539 501.5H537C537 507.575 541.925 512.5 548 512.5V510.5Z" fill="#B8CFEE"/>
<path d="M452.5 444.598C453.052 444.598 453.5 444.15 453.5 443.598C453.5 443.045 453.052 442.598 452.5 442.598V444.598ZM448.012 439.157C448.012 438.605 447.335 438.215 446.857 438.491L439.166 442.931C438.688 443.207 438.688 443.988 439.166 444.264L446.857 448.704C447.335 448.981 448.012 448.59 448.012 448.038V439.157ZM452.5 442.598H447.012V444.598H452.5V442.598Z" fill="#B8CFEE"/>
<path d="M441.684 270.738H487.5" stroke="#B8CFEE" stroke-width="2" stroke-linecap="round" stroke-linejoin="bevel"/>
<path d="M569.5 361.5C570.052 361.5 570.5 361.052 570.5 360.5C570.5 359.948 570.052 359.5 569.5 359.5V361.5ZM483.999 420.002H484.999H483.999ZM483.999 420.002H484.999H483.999ZM569.5 359.5H545.999V361.5H569.5V359.5ZM534.999 370.5V410H536.999V370.5H534.999ZM525.999 419H484.001V421H525.999V419ZM483.997 419.004H437.218V421.004H483.997V419.004ZM482.999 420.002C482.999 419.451 483.446 419.004 483.997 419.004V421.004C484.55 421.004 484.999 420.556 484.999 420.002H482.999ZM484.001 419C483.447 419 482.999 419.449 482.999 420.002H484.999C484.999 420.553 484.553 421 484.001 421V419ZM534.999 410C534.999 414.971 530.97 419 525.999 419V421C532.075 421 536.999 416.075 536.999 410H534.999ZM545.999 359.5C539.924 359.5 534.999 364.425 534.999 370.5H536.999C536.999 365.529 541.029 361.5 545.999 361.5V359.5Z" fill="#B8CFEE"/>
<path d="M572.5 270C571.948 270 571.5 270.448 571.5 271C571.5 271.552 571.948 272 572.5 272V270ZM616.5 275.44C616.5 275.992 617.176 276.383 617.655 276.107L625.345 271.667C625.824 271.391 625.824 270.609 625.345 270.333L617.655 265.893C617.176 265.617 616.5 266.008 616.5 266.56V275.44ZM572.5 272H617.5V270H572.5V272Z" fill="#B8CFEE"/>
<path d="M646.5 359.5C645.948 359.5 645.5 359.948 645.5 360.5C645.5 361.052 645.948 361.5 646.5 361.5V359.5ZM675.56 383C675.008 383 674.617 383.676 674.893 384.155L679.333 391.845C679.609 392.324 680.391 392.324 680.667 391.845L685.107 384.155C685.383 383.676 684.992 383 684.44 383H675.56ZM646.5 361.5H670V359.5H646.5V361.5ZM679 370.5V384H681V370.5H679ZM670 361.5C674.971 361.5 679 365.529 679 370.5H681C681 364.425 676.075 359.5 670 359.5V361.5Z" fill="#B8CFEE"/>
<path d="M646.5 511.5H670C675.523 511.5 680 507.023 680 501.5V483.5" stroke="#B8CFEE" stroke-width="2" stroke-linecap="round" stroke-linejoin="bevel"/>
<path d="M126.5 290.258C125.948 290.258 125.5 290.706 125.5 291.258C125.5 291.81 125.948 292.258 126.5 292.258V290.258ZM146.608 295.698C146.608 296.25 147.285 296.641 147.763 296.365L155.454 291.924C155.932 291.648 155.932 290.867 155.454 290.591L147.763 286.151C147.285 285.875 146.608 286.265 146.608 286.818V295.698ZM126.5 292.258H147.608V290.258H126.5V292.258Z" fill="#B8CFEE"/>
</svg>
