<svg width="532" height="392" viewBox="0 0 532 392" fill="none" xmlns="http://www.w3.org/2000/svg">
<path d="M1 199.5C0.723858 199.5 0.5 199.724 0.5 200C0.5 200.276 0.723858 200.5 1 200.5V199.5ZM32.3536 322.354C32.5488 322.158 32.5488 321.842 32.3536 321.646L29.1716 318.464C28.9763 318.269 28.6597 318.269 28.4645 318.464C28.2692 318.66 28.2692 318.976 28.4645 319.172L31.2929 322L28.4645 324.828C28.2692 325.024 28.2692 325.34 28.4645 325.536C28.6597 325.731 28.9763 325.731 29.1716 325.536L32.3536 322.354ZM16 215.5V306.5H17V215.5H16ZM16 306.5C16 315.337 23.1634 322.5 32 322.5V321.5C23.7157 321.5 17 314.784 17 306.5H16ZM1 200.5C9.28427 200.5 16 207.216 16 215.5H17C17 206.663 9.83656 199.5 1 199.5V200.5Z" fill="#B3B3B3"/>
<path d="M1 199.5C0.723858 199.5 0.5 199.724 0.5 200C0.5 200.276 0.723858 200.5 1 200.5V199.5ZM32.3536 126.354C32.5488 126.158 32.5488 125.842 32.3536 125.646L29.1716 122.464C28.9763 122.269 28.6597 122.269 28.4645 122.464C28.2692 122.66 28.2692 122.976 28.4645 123.172L31.2929 126L28.4645 128.828C28.2692 129.024 28.2692 129.34 28.4645 129.536C28.6597 129.731 28.9763 129.731 29.1716 129.536L32.3536 126.354ZM17.5003 184V141H16.5003V184H17.5003ZM17.5003 141C17.5003 132.992 23.992 126.5 32 126.5V125.5C23.4398 125.5 16.5003 132.439 16.5003 141H17.5003ZM1 200.5C10.1129 200.5 17.5003 193.113 17.5003 184H16.5003C16.5003 192.56 9.56058 199.5 1 199.5V200.5Z" fill="#B3B3B3"/>
<path d="M413 125.5C412.724 125.5 412.5 125.724 412.5 126C412.5 126.276 412.724 126.5 413 126.5V125.5ZM531.354 4.35355C531.549 4.15829 531.549 3.84171 531.354 3.64645L528.172 0.464466C527.976 0.269204 527.66 0.269204 527.464 0.464466C527.269 0.659728 527.269 0.976311 527.464 1.17157L530.293 4L527.464 6.82843C527.269 7.02369 527.269 7.34027 527.464 7.53553C527.66 7.7308 527.976 7.7308 528.172 7.53553L531.354 4.35355ZM413 126.5H448V125.5H413V126.5ZM472.5 102V28H471.5V102H472.5ZM496 4.5H531V3.5H496V4.5ZM472.5 28C472.5 15.0213 483.021 4.5 496 4.5V3.5C482.469 3.5 471.5 14.469 471.5 28H472.5ZM448 126.5C461.531 126.5 472.5 115.531 472.5 102H471.5C471.5 114.979 460.979 125.5 448 125.5V126.5Z" fill="#B3B3B3"/>
<path d="M413 125.5C412.724 125.5 412.5 125.724 412.5 126C412.5 126.276 412.724 126.5 413 126.5V125.5ZM420 133.5V260.5H421V133.5H420ZM420 260.5C420 264.918 423.582 268.5 428 268.5V267.5C424.134 267.5 421 264.366 421 260.5H420ZM413 126.5C416.866 126.5 420 129.634 420 133.5H421C421 129.082 417.418 125.5 413 125.5V126.5Z" fill="#B3B3B3"/>
<path d="M428 363.5C428.276 363.5 428.5 363.276 428.5 363C428.5 362.724 428.276 362.5 428 362.5V363.5ZM412.646 321.646C412.451 321.842 412.451 322.158 412.646 322.354L415.828 325.536C416.024 325.731 416.34 325.731 416.536 325.536C416.731 325.34 416.731 325.024 416.536 324.828L413.707 322L416.536 319.172C416.731 318.976 416.731 318.66 416.536 318.464C416.34 318.269 416.024 318.269 415.828 318.464L412.646 321.646ZM421 355.5V329.5H420V355.5H421ZM421 329.5C421 325.082 417.418 321.5 413 321.5V322.5C416.866 322.5 420 325.634 420 329.5H421ZM428 362.5C424.134 362.5 421 359.366 421 355.5H420C420 359.918 423.582 363.5 428 363.5V362.5Z" fill="#B3B3B3"/>
<path d="M506 267.5C505.724 267.5 505.5 267.724 505.5 268C505.5 268.276 505.724 268.5 506 268.5V267.5ZM531.354 310.354C531.549 310.158 531.549 309.842 531.354 309.646L528.172 306.464C527.976 306.269 527.66 306.269 527.464 306.464C527.269 306.66 527.269 306.976 527.464 307.172L530.293 310L527.464 312.828C527.269 313.024 527.269 313.34 527.464 313.536C527.66 313.731 527.976 313.731 528.172 313.536L531.354 310.354ZM514.5 277V300H515.5V277H514.5ZM525 310.5H531V309.5H525V310.5ZM514.5 300C514.5 305.799 519.201 310.5 525 310.5V309.5C519.753 309.5 515.5 305.247 515.5 300H514.5ZM506 268.5C510.694 268.5 514.5 272.306 514.5 277H515.5C515.5 271.753 511.247 267.5 506 267.5V268.5Z" fill="#B3B3B3"/>
<path d="M523 391.5C523.276 391.5 523.5 391.276 523.5 391C523.5 390.724 523.276 390.5 523 390.5V391.5ZM515.5 383V372H514.5V383H515.5ZM515.5 372C515.5 366.753 511.247 362.5 506 362.5V363.5C510.694 363.5 514.5 367.306 514.5 372H515.5ZM523 390.5C518.858 390.5 515.5 387.142 515.5 383H514.5C514.5 387.694 518.306 391.5 523 391.5V390.5Z" fill="#B3B3B3"/>
</svg>
