<svg width="1068" height="553" viewBox="0 0 1068 553" fill="none" xmlns="http://www.w3.org/2000/svg">
<path d="M187.5 245.5C186.948 245.5 186.5 245.948 186.5 246.5C186.5 247.052 186.948 247.5 187.5 247.5V245.5ZM276 119.923C276 120.475 276.676 120.865 277.155 120.589L284.845 116.149C285.324 115.873 285.324 115.092 284.845 114.816L277.155 110.376C276.676 110.099 276 110.49 276 111.042L276 119.923ZM187.5 247.5H209V245.5H187.5V247.5ZM234 222.5V139.482H232V222.5H234ZM257 116.482L277 116.482L277 114.482L257 114.482L257 116.482ZM234 139.482C234 126.78 244.297 116.482 257 116.482L257 114.482C243.193 114.482 232 125.675 232 139.482H234ZM209 247.5C222.807 247.5 234 236.307 234 222.5H232C232 235.203 221.702 245.5 209 245.5V247.5Z" fill="#B8CFEE"/>
<path d="M187.5 245.5C186.948 245.5 186.5 245.948 186.5 246.5C186.5 247.052 186.948 247.5 187.5 247.5V245.5ZM272.5 250.94C272.5 251.492 273.176 251.883 273.655 251.607L281.345 247.167C281.824 246.891 281.824 246.109 281.345 245.833L273.655 241.393C273.176 241.117 272.5 241.508 272.5 242.06V250.94ZM187.5 247.5H273.5V245.5H187.5V247.5Z" fill="#B8CFEE"/>
<path d="M187.5 245.5C186.948 245.5 186.5 245.948 186.5 246.5C186.5 247.052 186.948 247.5 187.5 247.5V245.5ZM272.5 381.94C272.5 382.492 273.176 382.883 273.655 382.607L281.345 378.167C281.824 377.891 281.824 377.109 281.345 376.833L273.655 372.393C273.176 372.117 272.5 372.508 272.5 373.06V381.94ZM187.5 247.5H211V245.5H187.5V247.5ZM234 270.5V353.5H236V270.5H234ZM259 378.5H273.5V376.5H259V378.5ZM234 353.5C234 367.307 245.193 378.5 259 378.5V376.5C246.297 376.5 236 366.203 236 353.5H234ZM211 247.5C223.703 247.5 234 257.797 234 270.5H236C236 256.693 224.807 245.5 211 245.5V247.5Z" fill="#B8CFEE"/>
<path d="M700.5 114.5C699.948 114.5 699.5 114.948 699.5 115.5C699.5 116.052 699.948 116.5 700.5 116.5V114.5ZM700.5 116.5H735.5V114.5H700.5V116.5Z" fill="#119891"/>
<path d="M700.5 245.5C699.948 245.5 699.5 245.948 699.5 246.5C699.5 247.052 699.948 247.5 700.5 247.5V245.5ZM700.5 247.5H735.5V245.5H700.5V247.5Z" fill="#119891"/>
<path d="M840.5 245C839.948 245 839.5 245.448 839.5 246C839.5 246.552 839.948 247 840.5 247V245ZM894.5 250.44C894.5 250.992 895.176 251.383 895.655 251.107L903.345 246.667C903.824 246.391 903.824 245.609 903.345 245.333L895.655 240.893C895.176 240.617 894.5 241.008 894.5 241.56V250.44ZM840.5 247H895.5V245H840.5V247Z" fill="#119891"/>
<path d="M840.5 114.5C839.948 114.5 839.5 114.948 839.5 115.5C839.5 116.052 839.948 116.5 840.5 116.5V114.5ZM894.5 250.44C894.5 250.992 895.176 251.383 895.655 251.107L903.345 246.667C903.824 246.391 903.824 245.609 903.345 245.333L895.655 240.893C895.176 240.617 894.5 241.008 894.5 241.56V250.44ZM856 132V222H858V132H856ZM881 247H895.5V245H881V247ZM856 222C856 235.807 867.193 247 881 247V245C868.297 245 858 234.703 858 222H856ZM840.5 116.5C849.06 116.5 856 123.44 856 132H858C858 122.335 850.165 114.5 840.5 114.5V116.5Z" fill="#119891"/>
<path d="M700.5 376.5C699.948 376.5 699.5 376.948 699.5 377.5C699.5 378.052 699.948 378.5 700.5 378.5V376.5ZM700.5 378.5H735.5V376.5H700.5V378.5Z" fill="#119891"/>
<path d="M840.5 376.5C839.948 376.5 839.5 376.948 839.5 377.5C839.5 378.052 839.948 378.5 840.5 378.5V376.5ZM894.5 250.44C894.5 250.992 895.176 251.383 895.655 251.107L903.345 246.667C903.824 246.391 903.824 245.609 903.345 245.333L895.655 240.893C895.176 240.617 894.5 241.008 894.5 241.56V250.44ZM858 361V270H856V361H858ZM881 247H895.5V245H881V247ZM858 270C858 257.297 868.298 247 881 247V245C867.193 245 856 256.193 856 270H858ZM840.5 378.5C850.165 378.5 858 370.665 858 361H856C856 369.56 849.06 376.5 840.5 376.5V378.5Z" fill="#119891"/>
<path d="M490.5 466.5C490.5 467.052 490.948 467.5 491.5 467.5C492.052 467.5 492.5 467.052 492.5 466.5H490.5ZM495.94 448.5C496.492 448.5 496.883 447.824 496.607 447.345L492.167 439.655C491.891 439.176 491.109 439.176 490.833 439.655L486.393 447.345C486.117 447.824 486.508 448.5 487.06 448.5H495.94ZM492.5 466.5V447.5H490.5V466.5H492.5Z" fill="#3069B3"/>
</svg>
