<svg width="20" height="20" viewBox="0 0 20 20" fill="none" xmlns="http://www.w3.org/2000/svg">
<path d="M2.99984 19.5455C2.35817 19.5455 1.80906 19.3269 1.3525 18.8898C0.89517 18.452 0.666504 17.926 0.666504 17.3117V7.25974C0.666504 6.90606 0.749337 6.571 0.915004 6.25455C1.07989 5.9381 1.30817 5.67749 1.59984 5.47273L8.59984 0.446753C8.81373 0.297836 9.03734 0.186147 9.27067 0.111688C9.504 0.0372293 9.74706 0 9.99984 0C10.2526 0 10.4957 0.0372293 10.729 0.111688C10.9623 0.186147 11.1859 0.297836 11.3998 0.446753L18.3998 5.47273C18.6915 5.67749 18.9202 5.9381 19.0858 6.25455C19.2507 6.571 19.3332 6.90606 19.3332 7.25974V17.3117C19.3332 17.926 19.1049 18.452 18.6483 18.8898C18.191 19.3269 17.6415 19.5455 16.9998 19.5455H12.3332V11.7273H7.6665V19.5455H2.99984Z" fill="#031B4B"/>
</svg>
