<svg width="18" height="19" viewBox="0 0 18 19" fill="none" xmlns="http://www.w3.org/2000/svg">
<path opacity="0.3" d="M2.25 18.8474C1.63125 18.8474 1.10175 18.6367 0.6615 18.2152C0.2205 17.793 0 17.2858 0 16.6934V7.00046C0 6.65942 0.0798748 6.33632 0.239625 6.03117C0.398625 5.72602 0.61875 5.47472 0.9 5.27727L7.65 0.430798C7.85625 0.287199 8.07187 0.179499 8.29688 0.107699C8.52188 0.0358997 8.75625 0 9 0C9.24375 0 9.47812 0.0358997 9.70312 0.107699C9.92813 0.179499 10.1438 0.287199 10.35 0.430798L17.1 5.27727C17.3813 5.47472 17.6017 5.72602 17.7615 6.03117C17.9205 6.33632 18 6.65942 18 7.00046V16.6934C18 17.2858 17.7799 17.793 17.3396 18.2152C16.8986 18.6367 16.3687 18.8474 15.75 18.8474H11.25V11.3084H6.75V18.8474H2.25Z" fill="#031B4B"/>
</svg>
