<svg width="41" height="40" viewBox="0 0 41 40" fill="none" xmlns="http://www.w3.org/2000/svg">
<rect x="0.5" width="40" height="40" rx="20" fill="#E3EFFF"/>
<path d="M14.3916 16.3366L13.2897 16.6858C11.67 17.1991 10.5 18.7155 10.5 20.5C10.5 22.3675 11.7798 23.9361 13.5101 24.3766C14.0453 24.5128 14.5 24.9477 14.5 25.5C14.5 26.0523 14.0489 26.5087 13.5042 26.4177C10.6644 25.9434 8.5 23.4745 8.5 20.5C8.5 17.8187 10.2587 15.5483 12.6855 14.7793C13.4727 11.188 16.6724 8.5 20.5 8.5C24.3276 8.5 27.5273 11.188 28.3145 14.7793C30.7413 15.5483 32.5 17.8187 32.5 20.5C32.5 23.4745 30.3356 25.9434 27.4958 26.4177C26.9511 26.5087 26.5 26.0523 26.5 25.5C26.5 24.9477 26.9547 24.5128 27.4899 24.3766C29.2202 23.9361 30.5 22.3675 30.5 20.5C30.5 18.7155 29.33 17.1991 27.7103 16.6858L26.6084 16.3366L26.3609 15.2075C25.7706 12.5145 23.3682 10.5 20.5 10.5C17.6318 10.5 15.2294 12.5145 14.6391 15.2075L14.3916 16.3366Z" fill="#1E97EE"/>
<path d="M20.5 19.5L17.5 22M20.5 19.5L23.5 22M20.5 19.5V31.5" stroke="#1E97EE" stroke-width="2" stroke-linecap="round"/>
</svg>
