<svg width="16" height="17" viewBox="0 0 16 17" fill="none" xmlns="http://www.w3.org/2000/svg">
<path fill-rule="evenodd" clip-rule="evenodd" d="M7.23223 3.11342C7.4538 2.94725 7.72328 2.85742 8.00023 2.85742C8.27719 2.85742 8.54667 2.94725 8.76823 3.11342L13.2482 6.47342C13.4072 6.59265 13.5362 6.74725 13.6251 6.92499C13.714 7.10272 13.7602 7.29871 13.7602 7.49742V13.5774C13.7602 13.9169 13.6254 14.2425 13.3853 14.4825C13.1453 14.7226 12.8197 14.8574 12.4802 14.8574H3.52023C3.18076 14.8574 2.85518 14.7226 2.61514 14.4825C2.37509 14.2425 2.24023 13.9169 2.24023 13.5774V7.49742C2.24023 7.29871 2.2865 7.10272 2.37537 6.92499C2.46424 6.74725 2.59326 6.59265 2.75223 6.47342L7.23223 3.11342Z" fill="#808080"/>
<rect x="7.5" y="10.8574" width="1" height="4" fill="white"/>
</svg>
