<svg width="18" height="18" viewBox="0 0 18 18" fill="none" xmlns="http://www.w3.org/2000/svg">
<path d="M9 8.16667V12.3333M9 16.5C8.01509 16.5 7.03982 16.306 6.12987 15.9291C5.21993 15.5522 4.39314 14.9997 3.6967 14.3033C3.00026 13.6069 2.44781 12.7801 2.0709 11.8701C1.69399 10.9602 1.5 9.98491 1.5 9C1.5 8.01509 1.69399 7.03982 2.0709 6.12987C2.44781 5.21993 3.00026 4.39314 3.6967 3.6967C4.39314 3.00026 5.21993 2.44781 6.12987 2.0709C7.03982 1.69399 8.01509 1.5 9 1.5C10.9891 1.5 12.8968 2.29018 14.3033 3.6967C15.7098 5.10322 16.5 7.01088 16.5 9C16.5 10.9891 15.7098 12.8968 14.3033 14.3033C12.8968 15.7098 10.9891 16.5 9 16.5ZM9.04167 5.66667V5.75H8.95833V5.66667H9.04167Z" stroke="#FF3055" stroke-width="1.6" stroke-linecap="round" stroke-linejoin="round"/>
</svg>
