<svg width="162" height="105" viewBox="0 0 162 105" fill="none" xmlns="http://www.w3.org/2000/svg">
<g clip-path="url(#clip0_1008_12914)">
<path fill-rule="evenodd" clip-rule="evenodd" d="M105.402 4.5C116.728 4.5 125.902 13.2879 125.902 24.197C125.902 35.1061 116.728 43.8939 105.402 43.8939V37.9545C113.311 37.9545 119.701 31.7727 119.701 24.197C119.701 16.6212 113.311 10.4394 105.402 10.4394V4.5ZM63.3918 4.5C68.0104 4.5 72.2494 5.95455 75.6659 8.37879C76.5517 8.92424 77.0579 9.83333 77.0579 10.8636C77.0579 12.5 75.6659 13.8333 73.9577 13.8333C73.1985 13.8333 72.5658 13.5909 71.9963 13.1667C69.5921 11.4091 66.6185 10.4394 63.3918 10.4394C55.4831 10.4394 49.0297 16.6212 49.0297 24.197C49.0297 31.7727 55.4831 37.9545 63.3918 37.9545C78.26 37.9545 80.6642 20.0758 90.724 10.4394C91.7363 9.40909 92.8119 8.56061 94.0772 7.77273L94.1405 7.71212C94.3303 7.65152 94.4569 7.5303 94.5834 7.4697C95.7855 6.74242 97.1142 6.13636 98.5061 5.65152C98.6959 5.59091 98.8857 5.5303 99.0755 5.4697L99.202 5.40909C101.163 4.80303 103.251 4.5 105.402 4.5V10.4394C105.213 10.4394 105.023 10.4394 104.833 10.4394C102.176 10.5606 99.898 11.2879 97.8734 12.5C93.7609 14.9242 91.0403 19.2879 91.0403 24.197C91.0403 31.7727 97.4938 37.9545 105.402 37.9545V43.8939C95.4692 43.8939 87.2442 37.1061 85.2828 28.197C80.3479 36.3788 74.7802 44.197 63.3918 43.8939C52.0666 43.5909 42.8926 35.0455 42.8926 24.197C42.8926 13.3485 52.0666 4.5 63.3918 4.5Z" fill="#0077AE"/>
<path fill-rule="evenodd" clip-rule="evenodd" d="M38.6538 40.7424C38.6538 40.803 38.6538 40.803 38.6538 40.8636C38.6538 42.5 37.2619 43.8939 35.4903 43.8939C33.7821 43.8939 32.3901 42.5606 32.3901 40.8636V40.803V40.7424V40.6818V38.3788V38.3182V9.10606V8.98485V7.5303V7.4697C32.4534 5.83333 33.8453 4.5 35.5536 4.5C37.2619 4.5 38.717 5.83333 38.717 7.4697V7.5303C38.717 18.6818 38.717 27.2273 38.717 38.3788V40.7424H38.6538Z" fill="#0077AE"/>
<path fill-rule="evenodd" clip-rule="evenodd" d="M24.4815 37.8939C17.0157 37.4697 11.0684 31.4697 11.0684 24.197C11.0684 16.8636 16.6994 10.9848 24.608 10.5V10.4394C26.3163 10.3788 27.5817 9.10606 27.5817 7.4697C27.5817 5.83333 26.1265 4.5 24.4182 4.5C24.3549 4.5 24.1651 4.5 24.1019 4.56061C16.6994 4.98485 10.3092 9.22727 7.08248 15.2879V7.65151V7.59091C7.08248 5.95455 5.69056 4.56061 3.91903 4.56061C2.21077 4.56061 0.818848 5.95455 0.818848 7.59091V7.65151V9.10606V9.16667V38.3788C0.818848 38.4394 0.818848 38.4394 0.818848 38.5V40.7424V40.8636C0.818848 40.9242 0.818848 40.9242 0.818848 40.9848C0.818848 42.6212 2.21077 44.0151 3.91903 44.0151C5.6273 44.0151 7.08248 42.6818 7.08248 40.9848C7.08248 40.9242 7.08248 40.9242 7.08248 40.8636V38.5V33.1061C10.3092 39.1667 16.6994 43.4091 24.1651 43.8333C24.2284 43.8333 24.3549 43.8333 24.4182 43.8333C26.1265 43.8333 27.5184 42.5 27.5184 40.8636C27.5184 39.2273 26.1265 37.9545 24.4815 37.8939Z" fill="#0077AE"/>
<path fill-rule="evenodd" clip-rule="evenodd" d="M128.116 10.5624C128.179 10.5624 128.243 10.5624 128.369 10.623C128.432 10.623 128.559 10.623 128.685 10.6836C135.392 11.8351 140.453 17.4715 140.453 24.1987C140.453 31.0472 135.139 36.7442 128.306 37.7745C126.787 37.9563 125.585 39.229 125.585 40.7442C125.585 42.3806 126.977 43.7139 128.685 43.7139C128.812 43.7139 128.939 43.7139 129.002 43.6533H129.065C129.128 43.6533 129.192 43.6533 129.318 43.6533C135.329 42.7442 140.517 39.3503 143.617 34.5624C146.717 39.2897 151.905 42.7442 157.916 43.6533C157.979 43.6533 158.042 43.6533 158.106 43.6533H158.169C158.295 43.7139 158.422 43.7139 158.485 43.7139C160.193 43.7139 161.649 42.3806 161.649 40.7442C161.649 39.229 160.446 37.9563 158.928 37.7745C152.032 36.7442 146.78 31.0472 146.78 24.1987C146.78 17.4109 151.905 11.8351 158.548 10.6836C158.612 10.623 158.801 10.623 158.865 10.623C158.928 10.5624 158.991 10.5624 159.118 10.5624C160.51 10.32 161.649 9.10784 161.649 7.65329C161.649 6.01693 160.257 4.68359 158.485 4.68359C158.422 4.68359 158.232 4.68359 158.106 4.68359H158.042V4.7442H157.979H157.916C157.726 4.7442 157.536 4.80481 157.346 4.80481C151.589 5.83511 146.591 9.16844 143.617 13.7745C140.517 9.16844 135.582 5.83511 129.761 4.80481C129.508 4.7442 129.381 4.7442 129.128 4.7442H129.065L129.002 4.68359C128.875 4.68359 128.749 4.68359 128.622 4.68359C126.914 4.68359 125.522 6.01693 125.522 7.65329C125.522 9.10784 126.661 10.32 128.116 10.5624Z" fill="#0077AE"/>
</g>
<path d="M26.8203 94.5V66.2188H45.4531V71.0625H32.6797V77.9375H44.2422V82.7812H32.6797V94.5H26.8203ZM75.2188 80.3594C75.2188 89.5781 69.4766 94.8906 62.0156 94.8906C54.4766 94.8906 48.7734 89.5391 48.7734 80.3594C48.7734 71.1406 54.4766 65.8281 62.0156 65.8281C69.4766 65.8281 75.2188 71.1406 75.2188 80.3594ZM69.2422 80.3594C69.2422 74.3047 66.3906 71.0234 62.0156 71.0234C57.6406 71.0234 54.75 74.3047 54.75 80.3594C54.75 86.4141 57.6406 89.6953 62.0156 89.6953C66.3906 89.6953 69.2422 86.4141 69.2422 80.3594ZM79.4375 66.2188H86.7031L94.5547 85.3984H94.8672L102.719 66.2188H109.984V94.5H104.281V75.9844H104.047L96.6641 94.3828H92.7578L85.375 75.9062H85.1406V94.5H79.4375V66.2188ZM130.102 74.3047C129.867 72.0781 128.07 70.75 125.219 70.75C122.25 70.75 120.609 72.1172 120.57 73.9922C120.531 76.0234 122.68 76.9609 125.102 77.5078L127.641 78.1328C132.484 79.2266 136.117 81.6875 136.117 86.4141C136.117 91.6094 132.055 94.8906 125.18 94.8906C118.344 94.8906 113.969 91.7266 113.812 85.6719H119.516C119.711 88.5234 121.977 89.9688 125.102 89.9688C128.188 89.9688 130.18 88.5234 130.18 86.4141C130.18 84.5 128.422 83.6016 125.336 82.8203L122.25 82.0781C117.484 80.9062 114.555 78.5234 114.555 74.3828C114.555 69.2266 119.086 65.8281 125.258 65.8281C131.508 65.8281 135.648 69.3047 135.727 74.3047H130.102Z" fill="black"/>
<defs>
<clipPath id="clip0_1008_12914">
<rect width="162" height="40" fill="white" transform="translate(0 4.5)"/>
</clipPath>
</defs>
</svg>
