<svg width="71" height="18" viewBox="0 0 71 18" fill="none" xmlns="http://www.w3.org/2000/svg">
<g clip-path="url(#clip0_1119_5280)">
<path fill-rule="evenodd" clip-rule="evenodd" d="M46.1137 0C51.0684 0 55.0821 3.95455 55.0821 8.86364C55.0821 13.7727 51.0684 17.7273 46.1137 17.7273V15.0545C49.5737 15.0545 52.3694 12.2727 52.3694 8.86364C52.3694 5.45455 49.5737 2.67273 46.1137 2.67273V0ZM27.734 0C29.7547 0 31.6092 0.654545 33.104 1.74545C33.4915 1.99091 33.7129 2.4 33.7129 2.86364C33.7129 3.6 33.104 4.2 32.3566 4.2C32.0244 4.2 31.7476 4.09091 31.4985 3.9C30.4467 3.10909 29.1457 2.67273 27.734 2.67273C24.274 2.67273 21.4506 5.45455 21.4506 8.86364C21.4506 12.2727 24.274 15.0545 27.734 15.0545C34.2389 15.0545 35.2907 7.00909 39.6919 2.67273C40.1347 2.20909 40.6053 1.82727 41.1589 1.47273L41.1866 1.44545C41.2696 1.41818 41.325 1.36364 41.3804 1.33636C41.9063 1.00909 42.4876 0.736364 43.0965 0.518182C43.1796 0.490909 43.2626 0.463636 43.3457 0.436364L43.401 0.409091C44.2591 0.136364 45.1725 0 46.1137 0V2.67273C46.0306 2.67273 45.9476 2.67273 45.8645 2.67273C44.702 2.72727 43.7055 3.05455 42.8197 3.6C41.0205 4.69091 39.8303 6.65455 39.8303 8.86364C39.8303 12.2727 42.6536 15.0545 46.1137 15.0545V17.7273C41.7679 17.7273 38.1695 14.6727 37.3114 10.6636C35.1523 14.3455 32.7165 17.8636 27.734 17.7273C22.7793 17.5909 18.7656 13.7455 18.7656 8.86364C18.7656 3.98182 22.7793 0 27.734 0Z" fill="#0077AE"/>
<path fill-rule="evenodd" clip-rule="evenodd" d="M16.9112 16.3091C16.9112 16.3364 16.9112 16.3364 16.9112 16.3636C16.9112 17.1 16.3023 17.7273 15.5272 17.7273C14.7799 17.7273 14.1709 17.1273 14.1709 16.3636V16.3364V16.3091V16.2818V15.2455V15.2182V2.07273V2.01818V1.36364V1.33636C14.1986 0.6 14.8075 0 15.5549 0C16.3023 0 16.9389 0.6 16.9389 1.33636V1.36364C16.9389 6.38182 16.9389 10.2273 16.9389 15.2455V16.3091H16.9112Z" fill="#0077AE"/>
<path fill-rule="evenodd" clip-rule="evenodd" d="M10.7108 15.0273C7.44453 14.8364 4.84259 12.1364 4.84259 8.86364C4.84259 5.56364 7.30613 2.91818 10.7662 2.7V2.67273C11.5135 2.64545 12.0671 2.07273 12.0671 1.33636C12.0671 0.6 11.4305 0 10.6831 0C10.6554 0 10.5724 0 10.5447 0.0272727C7.30613 0.218182 4.51043 2.12727 3.09874 4.85454V1.41818V1.39091C3.09874 0.654545 2.48977 0.0272727 1.71473 0.0272727C0.967363 0.0272727 0.358398 0.654545 0.358398 1.39091V1.41818V2.07273V2.1V15.2455C0.358398 15.2727 0.358398 15.2727 0.358398 15.3V16.3091V16.3636C0.358398 16.3909 0.358398 16.3909 0.358398 16.4182C0.358398 17.1545 0.967363 17.7818 1.71473 17.7818C2.46209 17.7818 3.09874 17.1818 3.09874 16.4182C3.09874 16.3909 3.09874 16.3909 3.09874 16.3636V15.3V12.8727C4.51043 15.6 7.30613 17.5091 10.5724 17.7C10.6001 17.7 10.6554 17.7 10.6831 17.7C11.4305 17.7 12.0394 17.1 12.0394 16.3636C12.0394 15.6273 11.4305 15.0545 10.7108 15.0273Z" fill="#0077AE"/>
<path fill-rule="evenodd" clip-rule="evenodd" d="M56.0509 2.72749C56.0786 2.72749 56.1063 2.72749 56.1616 2.75476C56.1893 2.75476 56.2447 2.75476 56.3 2.78203C59.2341 3.30021 61.4485 5.83658 61.4485 8.86385C61.4485 11.9457 59.1234 14.5093 56.1339 14.9729C55.4696 15.0548 54.9437 15.6275 54.9437 16.3093C54.9437 17.0457 55.5527 17.6457 56.3 17.6457C56.3554 17.6457 56.4107 17.6457 56.4384 17.6184H56.4661C56.4938 17.6184 56.5215 17.6184 56.5768 17.6184C59.2064 17.2093 61.4762 15.682 62.8326 13.5275C64.1889 15.6548 66.4587 17.2093 69.0883 17.6184C69.116 17.6184 69.1436 17.6184 69.1713 17.6184H69.199C69.2544 17.6457 69.3097 17.6457 69.3374 17.6457C70.0848 17.6457 70.7214 17.0457 70.7214 16.3093C70.7214 15.6275 70.1955 15.0548 69.5312 14.9729C66.514 14.5093 64.2166 11.9457 64.2166 8.86385C64.2166 5.8093 66.4587 3.30021 69.3651 2.78203C69.3928 2.75476 69.4758 2.75476 69.5035 2.75476C69.5312 2.72749 69.5588 2.72749 69.6142 2.72749C70.2232 2.61839 70.7214 2.07294 70.7214 1.41839C70.7214 0.682031 70.1124 0.0820312 69.3374 0.0820312C69.3097 0.0820312 69.2267 0.0820312 69.1713 0.0820312H69.1436V0.109304H69.116H69.0883C69.0052 0.109304 68.9222 0.136577 68.8392 0.136577C66.3203 0.600213 64.1335 2.10021 62.8326 4.17294C61.4762 2.10021 59.3172 0.600213 56.7706 0.136577C56.6599 0.109304 56.6045 0.109304 56.4938 0.109304H56.4661L56.4384 0.0820312C56.3831 0.0820312 56.3277 0.0820312 56.2723 0.0820312C55.525 0.0820312 54.916 0.682031 54.916 1.41839C54.916 2.07294 55.4143 2.61839 56.0509 2.72749Z" fill="#0077AE"/>
</g>
<defs>
<clipPath id="clip0_1119_5280">
<rect width="70.875" height="18" fill="white"/>
</clipPath>
</defs>
</svg>
