<svg width="60" height="60" viewBox="0 0 60 60" fill="none" xmlns="http://www.w3.org/2000/svg">
<rect x="0.5" y="0.5" width="59" height="59" rx="7.5" fill="white"/>
<rect x="0.5" y="0.5" width="59" height="59" rx="7.5" stroke="#212121"/>
<path fill-rule="evenodd" clip-rule="evenodd" d="M30.7311 35.1921C30.801 35.1408 30.8618 35.0767 30.9094 35.0037C30.93 34.9694 30.9642 34.9009 30.9642 34.9009L33.7327 28.7266L35.6309 30.0903C35.8228 30.2274 36.0284 30.3302 36.234 30.3987C36.4669 30.4741 36.7068 30.5152 36.9535 30.5152C37.6456 30.5152 38.2898 30.2068 38.7215 29.6655L42.6481 24.7864C43.025 24.3135 43.2031 23.7173 43.1346 23.1143C43.0661 22.5113 42.7714 21.9699 42.2986 21.5862C41.8943 21.2641 41.3872 21.0859 40.8732 21.0859C40.1811 21.0859 39.5369 21.3943 39.1052 21.9356L36.5355 25.129L33.9383 23.2034C33.6573 22.9224 33.3353 22.6963 32.9721 22.5318C32.7596 22.4359 32.5267 22.3605 32.3279 22.3262L27.1884 20.6885L25.7973 15.2132C25.5369 14.2058 24.6324 13.5 23.5908 13.5C23.3989 13.5 23.2139 13.5206 23.0288 13.5685C22.4395 13.7193 21.9393 14.0893 21.6309 14.6101C21.3225 15.1309 21.2334 15.7408 21.3842 16.3302L23.0837 23.0252C23.2755 23.779 23.8306 24.3752 24.557 24.615C24.5707 24.6219 24.605 24.6287 24.605 24.6287L27.9902 25.7252L25.6452 30.9563L22.8233 28.7541C22.4258 28.4457 21.905 28.3429 21.4185 28.4731L13.161 30.7687C12.3181 31.0017 11.8247 31.8789 12.0577 32.7218C12.2016 33.2494 12.5991 33.64 13.0856 33.8045C13.3734 33.9004 13.6955 33.9141 14.0107 33.825L21.4938 31.7418L24.742 34.2705L20.6441 35.3189C20.3152 35.4012 20.0205 35.5862 19.8081 35.8466L15.8335 40.6983C15.2785 41.3767 15.3744 42.3772 16.0528 42.9322C16.2104 43.0556 16.3817 43.1515 16.5599 43.2132C17.163 43.4119 17.8619 43.2338 18.2936 42.713L21.9324 38.2656L29.1963 36.3057C29.2194 36.3011 29.2363 36.2933 29.2554 36.2845L29.2554 36.2845L29.2673 36.2791C29.273 36.2766 29.2789 36.274 29.2853 36.2714C29.8707 36.1017 30.391 35.732 30.7311 35.1921ZM26.9691 31.3512L30.0323 33.592L32.8076 27.3972C32.8898 27.2122 33.0543 27.0683 33.253 27.0135C33.4518 26.9587 33.6642 26.9998 33.8287 27.1163L36.4053 28.9733C36.4806 29.0282 36.5629 29.0693 36.6383 29.0967C37.0152 29.2269 37.3989 29.0967 37.6319 28.8089L41.5585 23.9298C41.7092 23.7448 41.7778 23.5049 41.7504 23.2651C41.7229 23.0252 41.6064 22.8059 41.4214 22.6552C41.0445 22.3537 40.4552 22.4153 40.1537 22.7922L37.1659 26.4995C36.9329 26.7873 36.5218 26.8422 36.2271 26.6229L33.0543 24.2724C33.0543 24.2724 32.9926 24.2244 32.9652 24.197C32.7939 24.0189 32.602 23.8818 32.3827 23.7859C32.2663 23.731 32.1361 23.6899 31.9853 23.6625L31.5741 23.546C31.3891 23.4912 31.2178 23.4432 31.2178 23.4432L26.3798 21.874C26.1537 21.7986 25.9823 21.6204 25.9275 21.3943L24.4405 15.5489C24.3171 15.0761 23.8169 14.7746 23.3372 14.8979C23.1042 14.9596 22.9055 15.1035 22.7821 15.3091C22.6588 15.5147 22.6245 15.7614 22.6794 15.9944L24.3788 22.6894C24.4542 22.9841 24.6666 23.2171 24.9544 23.3199C24.9613 23.3199 24.9682 23.3199 24.9819 23.3267L29.114 24.6699C29.299 24.7315 29.4498 24.8686 29.532 25.0468C29.6143 25.2249 29.6074 25.4305 29.532 25.6018L26.9554 31.3512H26.9691ZM34.0342 22.6141C33.1571 22.6141 32.3142 22.3537 31.5878 21.8534C29.6211 20.5034 29.1209 17.8103 30.4709 15.8436C31.2795 14.665 32.6089 13.966 34.0411 13.966C34.9182 13.966 35.7611 14.2264 36.4875 14.7266C38.4542 16.0766 38.9545 18.7697 37.6045 20.7364C36.7959 21.9151 35.4596 22.6141 34.0342 22.6141ZM34.0377 15.3365C33.0659 15.3376 32.156 15.8171 31.6015 16.618C30.6833 17.9611 31.0259 19.8045 32.3622 20.7227C32.8556 21.0654 33.4312 21.2435 34.0274 21.2435C35.0005 21.2435 35.9187 20.7638 36.4669 19.9621C37.3852 18.6189 37.0426 16.7756 35.6994 15.8573C35.207 15.5153 34.6326 15.3372 34.0377 15.3365ZM47.3147 47.4276H23.1933C22.8164 47.4276 22.508 47.1192 22.508 46.7423C22.508 46.3654 22.8164 46.0571 23.1933 46.0571H47.3147C47.6916 46.0571 48 46.3654 48 46.7423C48 47.1192 47.6916 47.4276 47.3147 47.4276ZM40.4278 41.082C40.4278 41.2739 40.5785 41.4247 40.7704 41.4247C40.9623 41.4247 41.1131 41.2739 41.1131 41.082V33.1192C41.1131 32.9273 40.9623 32.7766 40.7704 32.7766C40.5785 32.7766 40.4278 32.9273 40.4278 33.1192V41.082ZM38.6529 37.5049C38.4611 37.5049 38.3103 37.3542 38.3103 37.1623V33.6195C38.3103 33.4276 38.4611 33.2768 38.6529 33.2768C38.8448 33.2768 38.9956 33.4276 38.9956 33.6195V37.1623C38.9956 37.3542 38.8448 37.5049 38.6529 37.5049ZM31.8345 40.4242C31.8345 40.616 31.9853 40.7668 32.1772 40.7668C32.369 40.7668 32.5198 40.616 32.5198 40.4242V37.1075C32.5198 36.9156 32.369 36.7648 32.1772 36.7648C31.9853 36.7648 31.8345 36.9156 31.8345 37.1075V40.4242Z" fill="#212121"/>
</svg>
