<svg width="60" height="60" viewBox="0 0 60 60" fill="none" xmlns="http://www.w3.org/2000/svg">
<rect x="0.5" y="0.5" width="59" height="59" rx="7.5" fill="white"/>
<rect x="0.5" y="0.5" width="59" height="59" rx="7.5" stroke="#212121"/>
<g clip-path="url(#clip0_692_20804)">
<path d="M37.7429 49.4139C32.2071 40.4139 32.1357 27.0639 32.1357 26.9282V26.2139H19.2786V26.9282C19.2786 27.0639 19.2071 40.4067 13.6714 49.4139L13 50.4996H38.4143L37.7429 49.4139ZM31.3857 34.7853H20.0286C20.2786 33.171 20.4357 31.7139 20.5357 30.4996H30.8857C30.9857 31.7139 31.1429 33.171 31.3929 34.7853H31.3857ZM30.7214 27.6424C30.7286 27.9996 30.75 28.4853 30.7857 29.071H20.6357C20.6714 28.4853 20.6857 27.9996 20.7 27.6424H30.7286H30.7214ZM15.5214 49.071C17.8 44.9567 19.0714 40.2353 19.7929 36.2139H31.6286C32.3429 40.2353 33.6214 44.9567 35.9 49.071H15.5214Z" fill="#212121"/>
<path d="M24.9928 24.7857C25.9 24.7857 26.7714 24.5071 27.4928 23.9857C28.4785 24.6929 29.7714 24.9571 30.9857 24.6643C31.7928 25.6429 32.9857 26.2143 34.2785 26.2143C35.3928 26.2143 36.4714 25.7714 37.2642 25C37.8785 25.3286 38.5642 25.5 39.2785 25.5C40.85 25.5 42.2571 24.6643 43.0142 23.3214C43.1928 23.3429 43.3785 23.3571 43.5642 23.3571C45.9285 23.3571 47.85 21.4357 47.85 19.0714C47.85 17.2214 46.6785 15.6143 44.9857 15.0286C44.9857 14.95 44.9857 14.8643 44.9857 14.7857C44.9857 12.4214 43.0642 10.5 40.7 10.5C39.4071 10.5 38.2142 11.0714 37.4071 12.05C36.7428 11.8857 36.05 11.8929 35.3857 12.05C34.65 11.5071 33.7642 11.2143 32.8428 11.2143C31.55 11.2143 30.3571 11.7857 29.55 12.7643C29.2214 12.6857 28.8928 12.6429 28.5571 12.6429C26.4214 12.6429 24.6428 14.2143 24.3214 16.2643C22.2714 16.5857 20.7 18.3643 20.7 20.5C20.7 22.8643 22.6214 24.7857 24.9857 24.7857H24.9928ZM24.9928 17.6429H25.7071V16.9286C25.7071 15.35 26.9857 14.0714 28.5642 14.0714C28.9071 14.0714 29.2428 14.1357 29.5714 14.2571L29.7 14.3071H30.2285L30.4357 13.9714C30.9571 13.1357 31.8571 12.6429 32.8428 12.6429C33.55 12.6429 34.2285 12.9 34.75 13.3714C35.35 13.9071 35.7 14.6857 35.7 15.5C35.7 16.4214 35.25 17.2929 34.4928 17.8357C34.2785 17.9857 34.05 18.1071 33.7857 18.2071L34.2785 19.55C34.6571 19.4143 35.0142 19.2286 35.3285 19.0071C36.4571 18.2 37.1357 16.8929 37.1357 15.5071C37.1357 14.75 36.9357 14.0214 36.5714 13.3786C36.8642 13.3929 37.15 13.45 37.4357 13.5571L37.5642 13.6071H38.0928L38.3 13.2714C38.8214 12.4357 39.7214 11.9429 40.7071 11.9429C42.2857 11.9429 43.5642 13.2214 43.5642 14.8C43.5642 15.0071 43.5428 15.2143 43.5 15.4143C43.25 16.55 42.3571 17.4071 41.2214 17.6143L41.4785 19.0214C42.9285 18.7571 44.1142 17.7786 44.6642 16.4571C45.7142 16.8857 46.4285 17.9143 46.4285 19.0929C46.4285 20.6714 45.15 21.95 43.5714 21.95C43.3071 21.95 43.05 21.9143 42.8071 21.85L42.1857 21.6786L41.95 22.2786C41.5142 23.3857 40.4714 24.1 39.2857 24.1C38.8785 24.1 38.4857 24.0071 38.1285 23.85C38.4142 23.2714 38.5714 22.6286 38.5714 21.9571C38.5714 20.9857 38.2571 20.0714 37.65 19.3071L36.5285 20.1929C36.9285 20.7 37.1428 21.3071 37.1428 21.9571C37.1428 22.6071 36.9428 23.1786 36.5714 23.6714C36.0357 24.3857 35.1785 24.8143 34.2857 24.8143C33.3 24.8143 32.4 24.3143 31.8785 23.4857L31.6642 23.15H31.1357L31.0142 23.2C30.1714 23.5214 29.2571 23.4143 28.5285 22.9714C29.0214 22.25 29.2928 21.4143 29.2928 20.5286H27.8642C27.8642 21.2929 27.5571 22.0214 27.0071 22.5786C26.4714 23.1 25.7642 23.3857 25.0071 23.3857C23.4285 23.3857 22.15 22.1071 22.15 20.5286C22.15 18.95 23.4285 17.6714 25.0071 17.6714L24.9928 17.6429Z" fill="#212121"/>
</g>
<defs>
<clipPath id="clip0_692_20804">
<rect width="34.85" height="40" fill="white" transform="translate(13 10.5)"/>
</clipPath>
</defs>
</svg>
