<svg width="60" height="60" viewBox="0 0 60 60" fill="none" xmlns="http://www.w3.org/2000/svg">
<rect x="0.5" y="0.5" width="59" height="59" rx="7.5" fill="white"/>
<rect x="0.5" y="0.5" width="59" height="59" rx="7.5" stroke="#212121"/>
<g clip-path="url(#clip0_692_20750)">
<path fill-rule="evenodd" clip-rule="evenodd" d="M30 34.5892C29.1417 34.5892 28.4476 33.8937 28.4476 33.0369V26.2271C28.4476 25.3689 29.1432 24.6748 30 24.6748C30.8582 24.6748 31.5523 25.3703 31.5523 26.2271V33.0369C31.5523 33.8951 30.8568 34.5892 30 34.5892Z" fill="#212121"/>
<path fill-rule="evenodd" clip-rule="evenodd" d="M30 39.4005C29.1417 39.4005 28.4476 38.705 28.4476 37.8482C28.4476 36.99 29.1432 36.2959 30 36.2959C30.8582 36.2959 31.5523 36.9914 31.5523 37.8482C31.5523 38.7065 30.8568 39.4005 30 39.4005Z" fill="#212121"/>
<path d="M47.4612 39.7051L33.4961 15.5189C32.7775 14.2733 31.4383 13.5 29.9997 13.5C28.5612 13.5 27.222 14.2733 26.5034 15.5174L12.5383 39.7066C11.5749 41.3712 11.9292 43.501 13.3793 44.7682C14.1137 45.4104 15.0698 45.7632 16.0706 45.7632H43.9274C44.9268 45.7632 45.8829 45.4104 46.6173 44.7696C48.0689 43.5024 48.4231 41.3726 47.4597 39.7066L47.4612 39.7051ZM44.5754 42.4296C44.3983 42.5837 44.165 42.6571 43.9289 42.6571H16.0706C15.8345 42.6571 15.6012 42.5837 15.4241 42.4282C15.077 42.1258 15.0122 41.6333 15.2282 41.2589L29.1933 17.0712C29.3589 16.7832 29.6685 16.6046 29.9997 16.6046C30.3309 16.6046 30.6405 16.7832 30.8061 17.0712L44.7713 41.2589C44.9873 41.6333 44.9225 42.1258 44.5754 42.4282V42.4296Z" fill="#212121"/>
</g>
<defs>
<clipPath id="clip0_692_20750">
<rect width="36" height="32.2632" fill="white" transform="translate(12 13.5)"/>
</clipPath>
</defs>
</svg>
