<svg width="60" height="60" viewBox="0 0 60 60" fill="none" xmlns="http://www.w3.org/2000/svg">
<rect x="0.5" y="0.5" width="59" height="59" rx="7.5" fill="white"/>
<rect x="0.5" y="0.5" width="59" height="59" rx="7.5" stroke="#212121"/>
<path d="M35.8853 29.6854C36.9797 29.6854 37.8669 28.6879 37.8669 27.4574C37.8669 26.227 36.9797 25.2295 35.8853 25.2295C34.791 25.2295 33.9038 26.227 33.9038 27.4574C33.9038 28.6879 34.791 29.6854 35.8853 29.6854Z" fill="#212121"/>
<path d="M24.1151 29.6854C25.2094 29.6854 26.0966 28.6879 26.0966 27.4574C26.0966 26.227 25.2094 25.2295 24.1151 25.2295C23.0207 25.2295 22.1335 26.227 22.1335 27.4574C22.1335 28.6879 23.0207 29.6854 24.1151 29.6854Z" fill="#212121"/>
<path d="M30 43.5008C22.8318 43.5008 17 37.6689 17 30.5C17 23.3311 22.8318 17.5 30 17.5C37.1682 17.5 43 23.3318 43 30.5C43 37.6682 37.1682 43.5 30 43.5V43.5008ZM30 19.183C23.76 19.183 18.683 24.26 18.683 30.5C18.683 36.74 23.76 41.817 30 41.817C36.24 41.817 41.317 36.74 41.317 30.5C41.317 24.26 36.2407 19.183 30 19.183Z" fill="#212121"/>
<path d="M29.9999 37.3935C29.6314 37.3935 28.6582 37.3538 27.5768 36.9869C26.4248 36.5959 25.5331 35.9717 24.9268 35.1313C24.5871 34.6602 24.6928 34.0026 25.1639 33.6629C25.635 33.3232 26.2926 33.4289 26.6323 33.9C27.4245 34.9968 29.1215 35.2899 29.9999 35.2899C30.8783 35.2899 32.5124 34.9028 33.418 33.8354C33.7943 33.3923 34.4574 33.3379 34.9005 33.7142C35.3436 34.0904 35.398 34.7535 35.0217 35.1966C33.5502 36.9309 31.1722 37.3943 29.9991 37.3943L29.9999 37.3935Z" fill="#212121"/>
<g clip-path="url(#clip0_692_20925)">
<path d="M12.5703 22.5609C12.885 22.5609 13.1406 22.3053 13.1406 21.9906V13.6416H21.4897C21.8043 13.6416 22.06 13.3854 22.06 13.0713C22.06 12.7571 21.8043 12.501 21.4897 12.501H12V21.9906C12 22.3053 12.2556 22.5609 12.5703 22.5609Z" fill="#212121"/>
<path d="M38.4519 12.5C38.1372 12.5 37.8816 12.7556 37.8816 13.0703C37.8816 13.385 38.1378 13.6406 38.4519 13.6406H46.8595V21.9897C46.8595 22.3043 47.1151 22.56 47.4298 22.56C47.7444 22.56 48.0001 22.3043 48.0001 21.9897V12.5H38.4519Z" fill="#212121"/>
<path d="M21.4896 47.3597H13.1411V38.9521C13.1411 38.6375 12.8849 38.3818 12.5708 38.3818C12.2567 38.3818 12.0005 38.638 12.0005 38.9521V48.5003H21.4902C21.8048 48.5003 22.0605 48.2447 22.0605 47.93C22.0605 47.6153 21.8048 47.3597 21.4902 47.3597H21.4896Z" fill="#212121"/>
<path d="M47.4298 38.3809C47.1151 38.3809 46.8595 38.637 46.8595 38.9512V47.3587H38.4519C38.1372 47.3587 37.8816 47.6144 37.8816 47.929C37.8816 48.2437 38.1378 48.4993 38.4519 48.4993H48.0001V38.9512C48.0001 38.6365 47.7444 38.3809 47.4298 38.3809Z" fill="#212121"/>
</g>
<defs>
<clipPath id="clip0_692_20925">
<rect width="36" height="36" fill="white" transform="translate(12 12.5)"/>
</clipPath>
</defs>
</svg>
