<svg width="60" height="60" viewBox="0 0 60 60" fill="none" xmlns="http://www.w3.org/2000/svg">
<rect x="0.5" y="0.5" width="59" height="59" rx="7.5" fill="white"/>
<rect x="0.5" y="0.5" width="59" height="59" rx="7.5" stroke="#212121"/>
<g clip-path="url(#clip0_692_20858)">
<path d="M33.772 37.3866C33.1981 36.405 32.3948 35.5594 31.4443 34.9339V16.5552C31.4443 14.3192 29.6251 12.5 27.3891 12.5C25.1531 12.5 23.3345 14.3192 23.3345 16.5552V34.9339C22.3839 35.5594 21.5807 36.405 21.0068 37.3866C20.348 38.5126 20 39.8003 20 41.1109C20 45.1856 23.315 48.5 27.3891 48.5C31.4632 48.5 34.7782 45.185 34.7782 41.1109C34.7782 39.8003 34.4302 38.512 33.772 37.3866ZM30.4822 35.838C32.3444 36.9331 33.5014 38.9535 33.5014 41.1109C33.5014 44.4815 30.7591 47.2232 27.3891 47.2232C24.019 47.2232 21.2768 44.481 21.2768 41.1109C21.2768 38.9535 22.4338 36.9331 24.296 35.838C24.4903 35.7239 24.6107 35.5129 24.6107 35.2876V16.5552C24.6107 15.0232 25.8571 13.7768 27.3891 13.7768C28.921 13.7768 30.1674 15.0232 30.1674 16.5552V35.2882C30.1674 35.5135 30.2878 35.7245 30.4822 35.8386V35.838Z" fill="#212121"/>
<path d="M28.8171 36.8961V26.2242C28.8171 25.4479 28.1876 24.8184 27.4113 24.8184C26.635 24.8184 26.0055 25.4479 26.0055 26.2242V36.8812C24.1777 37.466 22.8545 39.1786 22.8545 41.2001C22.8545 43.7044 24.8847 45.734 27.3884 45.734C29.8921 45.734 31.9223 43.7039 31.9223 41.2001C31.9223 39.1952 30.6208 37.4941 28.8166 36.8961H28.8171Z" fill="#212121"/>
<path d="M39.0335 19.4192H33.4556V17.8506H39.0335C39.4664 17.8506 39.8178 18.2015 39.8178 18.6349C39.8178 19.0683 39.4669 19.4192 39.0335 19.4192Z" fill="#212121"/>
<path d="M33.4556 24.751H39.0335C39.4664 24.751 39.8178 25.1024 39.8178 25.5353C39.8178 25.9682 39.4664 26.3196 39.0335 26.3196H33.4556V24.751Z" fill="#212121"/>
<path d="M33.4556 31.6523H39.0335C39.4664 31.6523 39.8178 32.0038 39.8178 32.4367C39.8178 32.8695 39.4664 33.221 39.0335 33.221H33.4556V31.6523Z" fill="#212121"/>
<path d="M37.4878 29.5642H33.4556V28.3877H37.4878C37.8129 28.3877 38.076 28.6509 38.076 28.9759C38.076 29.301 37.8129 29.5642 37.4878 29.5642Z" fill="#212121"/>
<path d="M33.4556 21.5137H37.4878C37.8123 21.5137 38.076 21.7774 38.076 22.1019C38.076 22.4264 37.8123 22.6901 37.4878 22.6901H33.4556V21.5137Z" fill="#212121"/>
</g>
<defs>
<clipPath id="clip0_692_20858">
<rect width="19.8177" height="36" fill="white" transform="translate(20 12.5)"/>
</clipPath>
</defs>
</svg>
