<svg width="60" height="60" viewBox="0 0 60 60" fill="none" xmlns="http://www.w3.org/2000/svg">
<rect x="0.5" y="0.5" width="59" height="59" rx="7.5" fill="white"/>
<rect x="0.5" y="0.5" width="59" height="59" rx="7.5" stroke="#212121"/>
<g clip-path="url(#clip0_692_20966)">
<path d="M39.5381 30.4585V30.931V42.3856H20.3218V30.931V30.4585V30.441C20.3218 26.0919 24.6358 22.5654 29.9299 22.5654C35.2241 22.5654 39.5381 26.1007 39.5381 30.441C39.5381 30.441 39.5381 30.4585 39.5381 30.4672V30.4585Z" fill="#212121"/>
<path d="M15.5966 43.2607H44.2549C44.4824 43.2607 44.6574 43.4445 44.6574 43.6633V46.4985C44.6574 46.726 44.4736 46.901 44.2549 46.901H15.5966C15.3691 46.901 15.1941 46.7172 15.1941 46.4985V43.6633C15.1941 43.4358 15.3779 43.2607 15.5966 43.2607Z" fill="#212121"/>
<path d="M29.9737 14.874C29.86 14.874 29.7725 14.9615 29.7725 15.0753V18.243C29.7725 18.3568 29.86 18.4443 29.9737 18.4443C30.0875 18.4443 30.175 18.3568 30.175 18.243V15.0753C30.175 14.9615 30.0875 14.874 29.9737 14.874Z" fill="#212121" stroke="#212121" stroke-width="1.14" stroke-miterlimit="10"/>
<path d="M47.2911 29.3994H44.1234C44.0122 29.3994 43.9221 29.4895 43.9221 29.6007C43.9221 29.7118 44.0122 29.8019 44.1234 29.8019H47.2911C47.4023 29.8019 47.4924 29.7118 47.4924 29.6007C47.4924 29.4895 47.4023 29.3994 47.2911 29.3994Z" fill="#212121" stroke="#212121" stroke-width="1.14" stroke-miterlimit="10"/>
<path d="M15.8675 29.3994H12.6998C12.5886 29.3994 12.4985 29.4895 12.4985 29.6007C12.4985 29.7118 12.5886 29.8019 12.6998 29.8019H15.8675C15.9787 29.8019 16.0688 29.7118 16.0688 29.6007C16.0688 29.4895 15.9787 29.3994 15.8675 29.3994Z" fill="#212121" stroke="#212121" stroke-width="1.14" stroke-miterlimit="10" stroke-linecap="round"/>
<path d="M42.5221 18.522C42.4433 18.4432 42.3121 18.4432 42.2333 18.522L39.9931 20.7621C39.9144 20.8409 39.9144 20.9721 39.9931 21.0509C40.0719 21.1296 40.2032 21.1296 40.2819 21.0509L42.5221 18.8107C42.6008 18.732 42.6008 18.6007 42.5221 18.522Z" fill="#212121" stroke="#212121" stroke-width="1.14" stroke-miterlimit="10"/>
<path d="M19.867 20.1947L17.6269 17.9546C17.5481 17.8758 17.4169 17.8758 17.3381 17.9546C17.2594 18.0333 17.2594 18.1646 17.3381 18.2433L19.5783 20.4835C19.657 20.5623 19.7883 20.5623 19.867 20.4835C19.9458 20.4047 19.9458 20.2735 19.867 20.1947Z" fill="#212121" stroke="#212121" stroke-width="1.14" stroke-miterlimit="10"/>
</g>
<defs>
<clipPath id="clip0_692_20966">
<rect width="36" height="33.4011" fill="white" transform="translate(12 13.5)"/>
</clipPath>
</defs>
</svg>
