<svg width="60" height="60" viewBox="0 0 60 60" fill="none" xmlns="http://www.w3.org/2000/svg">
<rect x="0.5" y="0.5" width="59" height="59" rx="7.5" fill="white"/>
<rect x="0.5" y="0.5" width="59" height="59" rx="7.5" stroke="#212121"/>
<g clip-path="url(#clip0_692_20723)">
<path d="M36.7256 29.8004L30.1724 24.7303L32.2008 22.1084L38.754 27.1786C39.4781 27.7386 39.6109 28.7798 39.0506 29.5035C38.4906 30.2276 37.4494 30.3604 36.7256 29.8001V29.8004Z" fill="#212121"/>
<path d="M23.515 49.8141C22.4933 49.5342 21.8919 48.4791 22.172 47.4574L25.7745 34.3077C26.0037 33.471 26.8679 32.9783 27.7046 33.2076L29.3835 35.6514L25.8717 48.4711C25.5919 49.4928 24.5367 50.0942 23.515 49.8141Z" fill="#212121"/>
<path d="M33.4247 16.3881C34.7717 15.0411 34.7717 12.8573 33.4247 11.5103C32.0777 10.1634 29.8939 10.1634 28.5469 11.5103C27.2 12.8573 27.2 15.0411 28.5469 16.3881C29.8939 17.7351 32.0777 17.7351 33.4247 16.3881Z" fill="#212121"/>
<path d="M39.6877 47.6804L38.0753 40.1876C37.9157 39.4454 37.5579 38.7621 37.0404 38.2115C37.0094 38.1774 36.9798 38.1467 36.9494 38.1178C36.7498 37.9181 36.5292 37.7383 36.2908 37.5815C36.2675 37.5661 36.2445 37.5498 36.2225 37.5327L32.1699 34.3355C31.6838 33.9522 31.4381 33.3337 31.528 32.7211L32.3608 27.0522C32.4664 26.0448 32.572 25.0371 32.6776 24.0297C32.8097 22.771 33.3 21.4883 33.0731 20.2136C32.7138 18.1974 29.9899 17.551 28.3633 18.4016C28.3563 18.4051 28.3493 18.4086 28.3423 18.4124L23.2297 21.1729C22.6268 21.4984 22.217 22.0417 22.0438 22.6525C22.01 22.7327 21.9801 22.8156 21.9539 22.9006L20.3677 28.0617C20.0544 29.0807 20.6266 30.1602 21.6455 30.4731C22.6644 30.7864 23.744 30.2142 24.0569 29.1953L25.5616 24.2994L26.5606 23.7599L25.3964 31.6854C25.3051 32.3064 25.3375 32.9274 25.4922 33.5306C25.6846 34.5059 26.2198 35.3816 27.0001 35.997L33.1087 40.8159C33.4906 41.1174 33.7575 41.5453 33.8599 42.0209L35.2775 48.6097C35.4782 49.5419 36.3149 50.2186 37.2672 50.2186C37.4112 50.2186 37.5558 50.2032 37.6972 50.1726L38.1395 50.0774C39.2274 49.8433 39.9219 48.7679 39.6877 47.68V47.6804Z" fill="#212121"/>
<path d="M37.2669 50.5001C36.1828 50.5001 35.2304 49.7299 35.0022 48.6692L33.5846 42.0804C33.4961 41.6686 33.2651 41.2981 32.9344 41.0371L26.8258 36.2182C25.9954 35.5631 25.4243 34.6309 25.218 33.5929C25.0556 32.9555 25.0221 32.3001 25.1183 31.6446L26.201 24.2742L25.7968 24.4923L24.3259 29.2782C23.9677 30.4434 22.7282 31.1003 21.5629 30.7421C20.9984 30.5685 20.5353 30.1856 20.2586 29.6636C19.9823 29.1416 19.9255 28.5433 20.099 27.9787L21.6856 22.8169C21.7124 22.7298 21.7438 22.6427 21.7786 22.5584C21.9832 21.8531 22.4508 21.2732 23.0965 20.9244L28.2092 18.1639C28.2162 18.16 28.2228 18.1569 28.2294 18.1534L28.2332 18.1513C29.2504 17.6196 30.6683 17.623 31.7618 18.16C32.6323 18.5872 33.1964 19.2988 33.3505 20.1634C33.5118 21.0683 33.3348 21.9628 33.1637 22.8277C33.0797 23.2529 33.0002 23.6546 32.9577 24.0582L32.641 27.0807H32.6396C32.6229 27.2079 32.5134 27.9516 31.8068 32.7614C31.7315 33.2744 31.9374 33.7929 32.3444 34.1138L36.3971 37.311C36.4117 37.3225 36.4278 37.334 36.4459 37.3462C36.6982 37.5124 36.9341 37.7044 37.1463 37.9166C37.1801 37.949 37.2128 37.9832 37.2466 38.0201C37.7983 38.608 38.1798 39.337 38.3499 40.128L39.9622 47.6207C40.2288 48.8602 39.4374 50.0857 38.198 50.3523L37.7558 50.4474C37.5948 50.4819 37.4303 50.4997 37.2665 50.4997L37.2669 50.5001ZM26.9206 23.2459L25.6748 31.7261C25.5891 32.3102 25.6194 32.8935 25.7647 33.4605L25.7682 33.4758C25.9477 34.3853 26.447 35.2021 27.1743 35.776L33.2829 40.5949C33.716 40.9368 34.0188 41.4222 34.1348 41.9616L35.5524 48.5504C35.7252 49.354 36.4462 49.9369 37.2669 49.9369C37.3909 49.9369 37.5157 49.9237 37.638 49.8972L38.0802 49.8021C39.0162 49.6007 39.6141 48.6751 39.4127 47.7388L37.8004 40.2461C37.6516 39.5541 37.3177 38.9167 36.8355 38.4034L36.8323 38.3999C36.8058 38.3707 36.7804 38.3445 36.7546 38.3198L36.7508 38.316C36.5647 38.1299 36.3581 37.9616 36.1364 37.8156C36.1044 37.7947 36.0758 37.7741 36.049 37.7525L31.9963 34.5553C31.4315 34.11 31.1457 33.3911 31.2503 32.6792C31.2503 32.6792 32.0528 27.2166 32.0824 27.0159L32.3984 23.9989C32.4434 23.57 32.5291 23.1368 32.6121 22.718C32.7804 21.8667 32.9396 21.0624 32.7967 20.2616C32.6406 19.3856 32.013 18.9096 31.514 18.6646C30.5735 18.2029 29.3602 18.197 28.4939 18.6496C28.489 18.6521 28.4841 18.6545 28.4789 18.6573L28.4751 18.6594L23.3634 21.4192C22.8474 21.698 22.4748 22.1625 22.3149 22.7277L22.3104 22.7441L22.3037 22.7598C22.2734 22.8319 22.2463 22.9065 22.2233 22.9814L20.6367 28.1432C20.5074 28.5642 20.5496 29.0102 20.7559 29.3991C20.9622 29.7883 21.3075 30.0737 21.7281 30.203C22.5968 30.4699 23.5209 29.9803 23.7879 29.1116L25.3263 24.1052L26.9206 23.2445V23.2459Z" fill="white"/>
</g>
<defs>
<clipPath id="clip0_692_20723">
<rect width="20.0145" height="40" fill="white" transform="translate(20 10.5)"/>
</clipPath>
</defs>
</svg>
