<svg width="60" height="60" viewBox="0 0 60 60" fill="none" xmlns="http://www.w3.org/2000/svg">
<rect x="0.5" y="0.5" width="59" height="59" rx="7.5" fill="white"/>
<rect x="0.5" y="0.5" width="59" height="59" rx="7.5" stroke="#212121"/>
<path d="M45.2332 34.1473C44.8857 33.553 44.3993 33.0409 43.8237 32.6622V21.5336C43.8237 20.1797 42.7222 19.0781 41.3683 19.0781C40.0143 19.0781 38.9131 20.1797 38.9131 21.5336V32.6622C38.3375 33.0409 37.8512 33.553 37.5037 34.1473C37.1048 34.8292 36.894 35.6089 36.894 36.4025C36.894 38.8698 38.9013 40.8767 41.3683 40.8767C43.8352 40.8767 45.8425 38.8694 45.8425 36.4025C45.8425 35.6089 45.6317 34.8288 45.2332 34.1473ZM43.2412 33.2096C44.3688 33.8727 45.0693 35.0961 45.0693 36.4025C45.0693 38.4434 43.4089 40.1036 41.3683 40.1036C39.3276 40.1036 37.6672 38.4431 37.6672 36.4025C37.6672 35.0961 38.3677 33.8727 39.4953 33.2096C39.613 33.1406 39.6859 33.0128 39.6859 32.8764V21.5336C39.6859 20.606 40.4406 19.8513 41.3683 19.8513C42.2959 19.8513 43.0506 20.606 43.0506 21.5336V32.8767C43.0506 33.0132 43.1235 33.1409 43.2412 33.21V33.2096Z" fill="#212121"/>
<path d="M42.2329 33.8504V27.3883C42.2329 26.9183 41.8517 26.5371 41.3817 26.5371C40.9116 26.5371 40.5304 26.9183 40.5304 27.3883V33.8414C39.4237 34.1955 38.6224 35.2324 38.6224 36.4565C38.6224 37.9729 39.8517 39.2019 41.3678 39.2019C42.8838 39.2019 44.1131 37.9726 44.1131 36.4565C44.1131 35.2425 43.3251 34.2125 42.2326 33.8504H42.2329Z" fill="#212121"/>
<path d="M48.4192 23.2672H45.0416V22.3174H48.4192C48.6813 22.3174 48.8941 22.5298 48.8941 22.7923C48.8941 23.0548 48.6816 23.2672 48.4192 23.2672Z" fill="#212121"/>
<path d="M45.0416 26.4961H48.4192C48.6813 26.4961 48.8941 26.7089 48.8941 26.971C48.8941 27.2331 48.6813 27.4459 48.4192 27.4459H45.0416V26.4961Z" fill="#212121"/>
<path d="M45.0416 30.6748H48.4192C48.6813 30.6748 48.8941 30.8876 48.8941 31.1497C48.8941 31.4118 48.6813 31.6246 48.4192 31.6246H45.0416V30.6748Z" fill="#212121"/>
<path d="M47.4832 29.4106H45.0416V28.6982H47.4832C47.68 28.6982 47.8394 28.8576 47.8394 29.0544C47.8394 29.2513 47.68 29.4106 47.4832 29.4106Z" fill="#212121"/>
<path d="M45.0416 24.5361H47.4832C47.6797 24.5361 47.8394 24.6958 47.8394 24.8923C47.8394 25.0888 47.6797 25.2485 47.4832 25.2485H45.0416V24.5361Z" fill="#212121"/>
<g clip-path="url(#clip0_692_20550)">
<path d="M21.0116 47.4997C15.5139 47.4997 11.0454 43.0258 11.0454 37.5336V36.017C11.0454 35.7191 11.2891 35.4754 11.587 35.4754C11.8849 35.4754 12.1287 35.7191 12.1287 36.017V37.5336C12.1287 42.4354 16.1151 46.4165 21.0116 46.4165C25.908 46.4165 29.8944 42.43 29.8944 37.5336V31.5485C29.8944 31.2506 30.1382 31.0068 30.4361 31.0068C30.734 31.0068 30.9777 31.2506 30.9777 31.5485V37.5336C30.9777 43.0312 26.5092 47.4997 21.0116 47.4997Z" fill="#212121"/>
<path d="M11.4841 37.913C8.9817 33.1357 10.4008 27.7627 10.4008 27.7627C10.9424 25.3091 13.1523 23.4512 15.4759 23.4512H27.2512C27.5978 23.4512 29.369 23.1533 29.2823 20.9326C29.2823 20.9326 32.088 23.3862 31.8118 26.4898C31.8118 29.2414 29.6398 31.9441 27.2512 31.9441H17.4421C17.4421 31.9441 14.111 31.7275 12.979 34.4086" fill="#212121"/>
<path d="M26.2709 36.8787C26.2709 37.22 26.5254 37.5016 26.845 37.5016C27.1646 37.5016 27.4191 37.2254 27.4191 36.8787C27.4191 36.5321 27.1646 36.2559 26.845 36.2559C26.5254 36.2559 26.2709 36.5321 26.2709 36.8787Z" fill="#212121"/>
<path d="M17.9567 36.8787C17.9567 37.22 18.2112 37.5016 18.5308 37.5016C18.8504 37.5016 19.1049 37.2254 19.1049 36.8787C19.1049 36.5321 18.8504 36.2559 18.5308 36.2559C18.2112 36.2559 17.9567 36.5321 17.9567 36.8787Z" fill="#212121"/>
<path d="M23.4976 43.2155H20.9194C20.7677 43.2155 20.6486 43.0963 20.6486 42.9446C20.6486 42.793 20.7677 42.6738 20.9194 42.6738H23.4976C23.6492 42.6738 23.7684 42.793 23.7684 42.9446C23.7684 43.0963 23.6492 43.2155 23.4976 43.2155Z" fill="#212121"/>
<path d="M27.7603 35.4703C27.7224 35.4703 27.6845 35.4649 27.652 35.4486L26.0379 34.7282C25.9025 34.6687 25.8375 34.5062 25.9025 34.3708C25.9621 34.2354 26.1245 34.1704 26.26 34.2354L27.874 34.9557C28.0094 35.0153 28.0744 35.1778 28.0094 35.3132C27.9661 35.4161 27.8632 35.4757 27.7603 35.4757V35.4703Z" fill="#212121"/>
<path d="M22.0352 40.3665H21.5261C21.3744 40.3665 21.2552 40.2473 21.2552 40.0957C21.2552 39.944 21.3744 39.8249 21.5261 39.8249H22.0352C22.5877 39.8249 22.8314 39.7924 22.8477 39.072V36.1634C22.8477 36.0117 22.9668 35.8926 23.1185 35.8926C23.2701 35.8926 23.3893 36.0117 23.3893 36.1634V39.0828C23.3568 40.269 22.6743 40.3719 22.0352 40.3719V40.3665Z" fill="#212121"/>
<path d="M15.4164 22.0325C15.281 22.0325 15.1455 21.9675 15.0697 21.8429C14.9506 21.6533 15.0101 21.4042 15.1997 21.285C15.633 21.0142 15.7684 20.6459 15.8118 20.3805C15.8713 19.9851 15.7468 19.5572 15.4814 19.2431C15.3947 19.1456 15.3135 19.0535 15.2322 18.9668C14.8856 18.5985 14.5281 18.2194 14.5281 17.5802C14.5281 16.8598 15.0156 15.9066 15.9147 15.5707C16.1259 15.4949 16.3588 15.5978 16.4346 15.8091C16.5159 16.0203 16.4076 16.2532 16.1963 16.3345C15.633 16.5457 15.3351 17.1957 15.3351 17.5856C15.3351 17.889 15.4976 18.0785 15.8172 18.4143C15.9093 18.5118 16.0013 18.6093 16.0934 18.7177C16.5159 19.2106 16.7055 19.8822 16.6134 20.5105C16.5213 21.1171 16.1692 21.6425 15.6276 21.9783C15.5626 22.0217 15.4868 22.0379 15.4109 22.0379L15.4164 22.0325Z" fill="#212121"/>
<path d="M20.0149 21.9946C19.8795 21.9946 19.7441 21.9242 19.6682 21.8051C19.5491 21.6155 19.6086 21.3663 19.7982 21.2472C20.2315 20.9764 20.3724 20.608 20.4103 20.3481C20.4698 19.9527 20.3507 19.5248 20.0799 19.2052C19.9986 19.1077 19.912 19.0156 19.8307 18.929C19.4841 18.5607 19.1266 18.1815 19.1266 17.5424C19.1266 16.8166 19.6141 15.8687 20.5186 15.5329C20.7244 15.4517 20.9627 15.56 21.0386 15.7712C21.1198 15.9825 21.0115 16.2154 20.8002 16.2966C20.2369 16.5078 19.939 17.1578 19.939 17.5478C19.939 17.8457 20.107 18.0353 20.4211 18.3765C20.5132 18.474 20.6053 18.5769 20.6973 18.6852C21.1198 19.1781 21.3094 19.8498 21.2119 20.4781C21.1144 21.0847 20.7678 21.6047 20.2261 21.9459C20.1611 21.9892 20.0853 22.0055 20.0149 22.0055V21.9946Z" fill="#212121"/>
<path d="M24.608 22.0159C24.4726 22.0159 24.3372 21.9455 24.2614 21.8263C24.1422 21.6367 24.2018 21.3876 24.3914 21.2684C24.8247 20.9976 24.9655 20.6293 25.0034 20.3693C25.063 19.9739 24.9384 19.546 24.673 19.2319C24.5863 19.129 24.4997 19.0369 24.4184 18.9502C24.0718 18.5819 23.7197 18.2028 23.7197 17.5636C23.7197 16.8432 24.2072 15.89 25.1063 15.5541C25.3176 15.4783 25.5505 15.5812 25.6263 15.7925C25.7021 16.0037 25.5992 16.2366 25.388 16.3124C24.8247 16.5237 24.5268 17.1736 24.5268 17.5582C24.5268 17.8615 24.6893 18.0511 25.0088 18.3869C25.1009 18.4844 25.193 18.5873 25.2905 18.6956C25.713 19.1885 25.9025 19.8602 25.805 20.4885C25.713 21.0951 25.3609 21.6205 24.8193 21.9563C24.7543 21.9996 24.6784 22.0159 24.6026 22.0159H24.608Z" fill="#212121"/>
<path d="M14.7122 40.9735C14.6418 40.9735 14.5714 40.9464 14.5227 40.8923C14.4143 40.7894 14.4143 40.616 14.5227 40.5077L15.4218 39.6086C15.5301 39.5003 15.698 39.5003 15.8063 39.6086C15.9147 39.7115 15.9147 39.8848 15.8063 39.9932L14.9072 40.8923C14.8531 40.9464 14.7826 40.9735 14.7176 40.9735H14.7122Z" fill="#212121"/>
<path d="M16.1639 40.9735C16.0935 40.9735 16.0231 40.9464 15.9743 40.8923C15.866 40.7894 15.866 40.616 15.9743 40.5077L16.8734 39.6086C16.9818 39.5003 17.1497 39.5003 17.258 39.6086C17.3663 39.7115 17.3663 39.8848 17.258 39.9932L16.3589 40.8923C16.3047 40.9464 16.2343 40.9735 16.1693 40.9735H16.1639Z" fill="#212121"/>
<path d="M17.6154 40.9735C17.545 40.9735 17.4746 40.9464 17.4259 40.8923C17.3175 40.7839 17.3175 40.616 17.4259 40.5077L18.325 39.6086C18.4333 39.5003 18.6012 39.5003 18.7095 39.6086C18.8179 39.7169 18.8179 39.8848 18.7095 39.9932L17.8104 40.8923C17.7562 40.9464 17.6858 40.9735 17.6208 40.9735H17.6154Z" fill="#212121"/>
<path d="M24.5971 40.9735C24.5267 40.9735 24.4563 40.9464 24.4075 40.8923C24.2992 40.7839 24.2992 40.616 24.4075 40.5077L25.3067 39.6086C25.415 39.5003 25.5829 39.5003 25.6912 39.6086C25.7995 39.7169 25.7995 39.8848 25.6912 39.9932L24.7921 40.8923C24.7379 40.9464 24.6675 40.9735 24.6025 40.9735H24.5971Z" fill="#212121"/>
<path d="M26.0488 40.9735C25.9784 40.9735 25.9079 40.9464 25.8592 40.8923C25.7509 40.7839 25.7509 40.616 25.8592 40.5077L26.7583 39.6086C26.8666 39.5003 27.0346 39.5003 27.1429 39.6086C27.2512 39.7169 27.2512 39.8848 27.1429 39.9932L26.2438 40.8923C26.1896 40.9464 26.1192 40.9735 26.0542 40.9735H26.0488Z" fill="#212121"/>
<path d="M27.5003 40.9735C27.4299 40.9735 27.3595 40.9464 27.3107 40.8923C27.2024 40.7839 27.2024 40.616 27.3107 40.5077L28.2099 39.6086C28.3182 39.5003 28.4861 39.5003 28.5944 39.6086C28.7028 39.7169 28.7028 39.8848 28.5944 39.9932L27.6953 40.8923C27.6411 40.9464 27.5707 40.9735 27.5057 40.9735H27.5003Z" fill="#212121"/>
</g>
<defs>
<clipPath id="clip0_692_20550">
<rect width="21.8334" height="32" fill="white" transform="translate(10 15.5)"/>
</clipPath>
</defs>
</svg>
