<svg width="60" height="60" viewBox="0 0 60 60" fill="none" xmlns="http://www.w3.org/2000/svg">
<rect x="0.5" y="0.5" width="59" height="59" rx="7.5" fill="white"/>
<rect x="0.5" y="0.5" width="59" height="59" rx="7.5" stroke="#212121"/>
<g clip-path="url(#clip0_692_20549)">
<path d="M41.955 24.4079C40.0005 24.2205 36.1777 23.6048 32.5334 21.5819C31.7243 21.1328 30.872 20.9053 29.9999 20.9053C29.1277 20.9053 28.2755 21.1328 27.4663 21.5819C23.822 23.6048 19.9992 24.2205 18.0448 24.4079C17.751 24.436 17.5359 24.6967 17.564 24.9905C17.5921 25.2843 17.8528 25.4994 18.1466 25.4713C20.1837 25.2761 24.171 24.6329 27.9849 22.5161C28.6334 22.156 29.3115 21.9737 29.9999 21.9737C30.6883 21.9737 31.3664 22.1564 32.0149 22.5161C35.8284 24.6329 39.8157 25.2761 41.8531 25.4713C41.8706 25.4731 41.8876 25.4738 41.9047 25.4738C42.1768 25.4738 42.4094 25.2669 42.4357 24.9905C42.4639 24.6967 42.2488 24.436 41.955 24.4079Z" fill="#212121"/>
<path d="M45.882 23.8017C45.7328 22.6023 45.0198 21.5745 43.9884 21.1624C43.8834 21.1204 43.7712 21.099 43.6583 21.099C43.6551 21.099 43.6519 21.099 43.6483 21.099C43.5995 21.0997 38.7187 21.1239 34.1848 18.6071C31.5252 17.131 28.4749 17.131 25.8152 18.6071C23.4644 19.912 21.0242 20.5199 19.3909 20.7999C17.6038 21.1065 16.3634 21.099 16.3517 21.0987C16.2356 21.0976 16.1198 21.119 16.0116 21.162C14.9802 21.5741 14.2672 22.6019 14.118 23.8014C11.765 24.3238 10 26.4268 10 28.9347V29.7524C10 30.907 10.3682 32.0035 11.0645 32.9241C11.7611 33.8447 12.7162 34.4975 13.827 34.8116L18.7239 36.1963C18.8852 36.3893 19.0505 36.5788 19.2193 36.7643C22.1684 40.003 25.9969 41.7869 29.9998 41.7869C34.0028 41.7869 37.8312 40.003 40.7804 36.7643C40.9492 36.5788 41.1144 36.3893 41.2758 36.1963L46.1726 34.8116C47.2834 34.4975 48.2389 33.8447 48.9352 32.9241C49.6318 32.0035 49.9996 30.9066 49.9996 29.7524V28.9347C49.9996 26.4268 48.2346 24.3238 45.8817 23.8017H45.882ZM14.118 33.7835C12.3227 33.276 11.0684 31.6182 11.0684 29.7524V28.9347C11.0684 27.0151 12.3662 25.3929 14.1305 24.8997C14.4976 28.5465 15.7259 31.9686 17.6541 34.7835L14.1176 33.7835H14.118ZM30.0002 40.0059C22.729 40.0059 16.6576 33.3212 15.8773 24.4563C15.8185 23.7885 16.1009 23.14 16.5472 22.8775C17.002 22.8683 18.1391 22.8184 19.6466 22.5627C21.428 22.2607 24.094 21.5994 26.6799 20.1642C28.79 18.9928 31.2107 18.9928 33.3211 20.1642C35.907 21.5994 38.5731 22.2607 40.3544 22.5627C41.8616 22.8184 42.9991 22.8683 43.4539 22.8775C43.9001 23.14 44.1825 23.7882 44.1238 24.4563C43.3435 33.3208 37.2721 40.0059 30.0009 40.0059H30.0002ZM48.932 29.752C48.932 31.6178 47.678 33.2756 45.8824 33.7831L42.346 34.7831C44.2741 31.9686 45.5024 28.5461 45.8695 24.8993C47.6338 25.3926 48.932 27.0148 48.932 28.9343V29.752Z" fill="#212121"/>
<path d="M40.1881 29.5492C33.8005 31.6846 26.9392 31.6829 19.7955 29.5443C19.5127 29.4595 19.215 29.6201 19.1305 29.9029C19.0458 30.1857 19.2064 30.4834 19.4892 30.5678C23.141 31.6611 26.7501 32.2192 30.2156 32.2263C30.2384 32.2263 30.2608 32.2263 30.2836 32.2263C33.7777 32.2263 37.224 31.6665 40.5268 30.5625C40.8067 30.4688 40.9577 30.1664 40.864 29.8865C40.7704 29.6066 40.468 29.4556 40.1881 29.5492Z" fill="#212121"/>
<path d="M37.994 33.5032C32.6898 35.9723 27.3107 35.9723 22.0061 33.5032C21.7386 33.3786 21.4209 33.4947 21.2963 33.7621C21.1716 34.0296 21.2877 34.3472 21.5552 34.4719C24.3534 35.7743 27.1946 36.4349 29.9999 36.4349C32.8051 36.4349 35.6464 35.7746 38.4445 34.4719C38.712 34.3472 38.8277 34.0296 38.7035 33.7621C38.5788 33.4947 38.2611 33.3789 37.9937 33.5032H37.994Z" fill="#212121"/>
</g>
<defs>
<clipPath id="clip0_692_20549">
<rect width="40" height="24.2863" fill="white" transform="translate(10 17.5)"/>
</clipPath>
</defs>
</svg>
