<svg width="60" height="60" viewBox="0 0 60 60" fill="none" xmlns="http://www.w3.org/2000/svg">
<rect x="0.5" y="0.5" width="59" height="59" rx="7.5" fill="white"/>
<rect x="0.5" y="0.5" width="59" height="59" rx="7.5" stroke="#212121"/>
<g clip-path="url(#clip0_692_20831)">
<path d="M32.9822 46.4997H29.8907C26.005 46.4997 22.8435 43.3582 22.8435 39.4925V22.806C22.8435 18.9453 26.005 15.7988 29.8907 15.7988H32.9822C36.8679 15.7988 40.0294 18.9403 40.0294 22.806V39.4925C40.0294 43.3532 36.8679 46.4997 32.9822 46.4997ZM29.8907 17.7966C27.1038 17.7966 24.8413 20.0441 24.8413 22.806V39.4925C24.8413 42.2544 27.1088 44.5019 29.8907 44.5019H32.9822C35.7691 44.5019 38.0316 42.2544 38.0316 39.4925V22.806C38.0316 20.0441 35.7641 17.7966 32.9822 17.7966H29.8907Z" fill="#212121"/>
<path d="M33.0521 17.1627H29.6908C29.4162 17.1627 29.1914 16.938 29.1914 16.6633V14.8253C29.1614 14.6355 29.1315 14.1161 29.4811 13.5967C29.8407 13.0673 30.475 12.7276 31.359 12.5828L38.3362 10.5201C38.4611 10.4801 38.6009 10.4951 38.7158 10.56C38.8307 10.625 38.9206 10.7299 38.9556 10.8597L39.2103 11.7188C39.2852 11.9685 39.1553 12.2332 38.9106 12.3281L35.894 13.4818H39.0355C39.3102 13.4818 39.5349 13.7065 39.5349 13.9812V14.9402C39.5349 15.1999 39.3351 15.4196 39.0754 15.4396L33.5765 15.8592L33.5566 16.6882C33.5516 16.9579 33.3268 17.1727 33.0571 17.1727L33.0521 17.1627ZM30.1903 16.1638H32.5676L32.5876 15.3747C32.5926 15.12 32.7924 14.9102 33.0471 14.8902L38.4761 14.4757H33.187C32.9472 14.4757 32.7375 14.3059 32.6975 14.0661C32.6526 13.8314 32.7874 13.5967 33.0122 13.5068L37.3124 11.8636L31.6187 13.5417C31.6187 13.5417 31.5738 13.5517 31.5538 13.5567C30.9494 13.6516 30.5249 13.8514 30.3201 14.1411C30.1354 14.4008 30.1803 14.6655 30.1803 14.6805C30.1853 14.7104 30.1903 14.7504 30.1903 14.7804V16.1638Z" fill="#212121"/>
<path d="M21.3102 30.6827H18.848C18.4334 30.6827 18.0988 30.348 18.0988 29.9335V20.8036C17.8691 18.4962 18.5783 14.0462 22.8685 13.4718C22.9035 13.4718 22.9334 13.4668 22.9684 13.4668H29.621C30.0355 13.4668 30.3702 13.8014 30.3702 14.216V15.8092C30.3702 16.2038 30.0655 16.5284 29.6759 16.5584L24.4468 16.9479C24.4118 16.9479 24.3818 16.9479 24.3469 16.9479C24.192 16.9479 23.4429 16.9779 22.8485 17.6172C22.2142 18.3014 21.9395 19.5151 22.0594 21.1183C22.0594 21.1383 22.0594 21.1533 22.0594 21.1732V29.9385C22.0594 30.353 21.7248 30.6877 21.3102 30.6877V30.6827ZM19.5971 29.1843H20.5611V21.1932C20.4162 19.1455 20.8158 17.5972 21.7498 16.5883C22.7736 15.4846 24.0722 15.4296 24.3718 15.4396L28.8668 15.105V14.9551H23.0183C19.1177 15.5245 19.5722 20.474 19.5921 20.6838C19.5921 20.7087 19.5921 20.7337 19.5921 20.7587V29.1793L19.5971 29.1843Z" fill="#212121"/>
<path d="M22.2442 37.1551C22.2442 37.1551 22.2392 37.1551 22.2342 37.1551H17.9989C17.7192 37.1551 17.4545 37.0403 17.2647 36.8305C17.075 36.6257 16.9801 36.346 17.005 36.0713L17.5444 29.8183C17.5894 29.3039 18.0189 28.9043 18.5383 28.9043H21.6149C22.1293 28.9043 22.5589 29.2939 22.6088 29.8033L23.2131 35.9165C23.2331 35.9914 23.2431 36.0713 23.2431 36.1562C23.2431 36.7056 22.7986 37.1551 22.2442 37.1551ZM19.0877 35.1573H21.1304L20.7109 30.9021H19.4523L19.0877 35.1573Z" fill="#212121"/>
<path d="M38.616 26.0526H23.9573C23.6826 26.0526 23.4579 25.8279 23.4579 25.5532C23.4579 25.2785 23.6826 25.0537 23.9573 25.0537H38.621C38.8957 25.0537 39.1205 25.2785 39.1205 25.5532C39.1205 25.8279 38.8957 26.0526 38.621 26.0526H38.616Z" fill="#212121"/>
<path d="M38.3164 36.786H23.6526C23.3779 36.786 23.1532 36.5612 23.1532 36.2866C23.1532 36.0119 23.3779 35.7871 23.6526 35.7871H38.3114C38.5861 35.7871 38.8108 36.0119 38.8108 36.2866C38.8108 36.5612 38.5861 36.786 38.3114 36.786H38.3164Z" fill="#212121"/>
</g>
<defs>
<clipPath id="clip0_692_20831">
<rect width="23.0294" height="36" fill="white" transform="translate(17 10.5)"/>
</clipPath>
</defs>
</svg>
