<svg width="60" height="60" viewBox="0 0 60 60" fill="none" xmlns="http://www.w3.org/2000/svg">
<rect x="0.5" y="0.5" width="59" height="59" rx="7.5" fill="white"/>
<rect x="0.5" y="0.5" width="59" height="59" rx="7.5" stroke="#212121"/>
<g clip-path="url(#clip0_692_21099)">
<path d="M34.2142 21.7054L36.8308 22.6289L35.7696 25.6358L33.1529 24.7123L34.2142 21.7054Z" fill="#212121"/>
<path d="M15.804 23.7452L16.9132 24.8579H23.0294L24.0505 21.5199L17.8427 19.3286L19.1792 15.5394L19.5625 14.4539L20.2512 12.5L39 19.1182L37.9281 22.1577L33.5894 20.6278L32.2529 24.4169L25.6143 22.0729L24.254 26.5133H16.9166L15.804 27.6259H15V23.7452H15.804Z" fill="#212121"/>
<g clip-path="url(#clip1_692_21099)">
<path d="M36.5175 33.6629C35.789 33.6629 35.0904 33.352 34.6005 32.811C34.1405 32.2998 33.9062 31.6395 33.9403 30.9494C33.9743 30.2593 34.2768 29.6289 34.788 29.1645C35.2608 28.7343 35.8742 28.5 36.5132 28.5C37.2417 28.5 37.9403 28.811 38.4302 29.352C38.8902 29.8632 39.1245 30.5234 39.0904 31.2135C39.0563 31.9036 38.7539 32.5341 38.2427 32.9984C37.7699 33.4286 37.1565 33.6629 36.5132 33.6629H36.5175ZM36.5175 29.352C36.0915 29.352 35.6783 29.5096 35.3588 29.795C35.0138 30.106 34.8135 30.5277 34.7922 30.9878C34.7667 31.4478 34.9243 31.8908 35.2353 32.2359C35.5633 32.598 36.0276 32.8067 36.5175 32.8067C36.9435 32.8067 37.3567 32.6491 37.6762 32.3637C38.0169 32.0527 38.2214 31.631 38.2427 31.1667C38.2683 30.7066 38.1107 30.2636 37.7997 29.9185C37.4717 29.5564 37.0031 29.3477 36.5175 29.3477V29.352Z" fill="#212121"/>
<path d="M40.5559 42.3143C39.8445 42.3143 39.2566 41.735 39.2481 41.0279L39.2055 38.489L38.7881 38.1397V41.6072C38.7881 41.6072 38.7923 41.6285 38.7966 41.6413C38.8136 41.7648 38.7795 41.9054 38.7029 41.9991C38.6219 42.0928 38.5069 42.1652 38.3834 42.1652H34.8349C34.6006 42.1652 34.4089 41.9736 34.4089 41.7393V40.1589C34.3195 40.2654 34.213 40.3548 34.0937 40.4272L31.9893 41.7094C31.7849 41.833 31.5463 41.9011 31.3078 41.9011C30.8477 41.9011 30.4302 41.6668 30.1917 41.2749C29.8168 40.6573 30.0128 39.8521 30.6262 39.4773L32.4537 38.3612L34.6773 34.621C34.6986 34.5827 34.7284 34.5444 34.7582 34.506C35.1501 33.8798 35.8402 33.4922 36.5985 33.4922C37.2332 33.4922 37.8381 33.7733 38.2556 34.2632L41.3482 36.8702C41.6379 37.1131 41.8083 37.4709 41.8126 37.85L41.8637 40.9853C41.8679 41.3346 41.7401 41.6626 41.4973 41.9139C41.2545 42.1652 40.9265 42.3058 40.5772 42.3143C40.5772 42.3143 40.5602 42.3143 40.5559 42.3143ZM38.3663 36.7936C38.4643 36.7936 38.5623 36.8277 38.639 36.8958L39.9041 37.965C39.9979 38.046 40.0532 38.161 40.0575 38.2845L40.1001 41.0193C40.1001 41.2664 40.3088 41.4666 40.5559 41.4666C40.6837 41.4666 40.7987 41.4155 40.8839 41.3261C40.9691 41.2366 41.0117 41.1258 41.0117 41.0023L40.9606 37.8671C40.9606 37.735 40.9009 37.6115 40.7987 37.5263L37.6762 34.8937C37.6762 34.8937 37.6379 34.8596 37.6209 34.8383C37.3653 34.5273 36.9904 34.3484 36.5942 34.3484C36.1342 34.3484 35.7082 34.587 35.4611 34.9831C35.4526 34.9959 35.4441 35.0087 35.4356 35.0215L35.4015 35.0641L33.1267 38.8937C33.0926 38.9533 33.0415 39.0044 32.9819 39.0385L31.0649 40.21C30.852 40.342 30.7795 40.6232 30.9116 40.8404C31.0394 41.0449 31.3248 41.1216 31.5378 40.9895L33.6464 39.703C33.7103 39.6647 33.7657 39.6093 33.804 39.5454L34.4643 38.4294C34.5623 38.2632 34.7582 38.1865 34.9414 38.2377C35.1246 38.2888 35.2566 38.4549 35.2566 38.6466V41.3175H37.9361V37.2238C37.9361 37.0577 38.0341 36.9086 38.1832 36.8362C38.2385 36.8106 38.3024 36.7978 38.3621 36.7978L38.3663 36.7936Z" fill="#212121"/>
<path d="M41.7487 49.6463L39.2141 46.5877L38.6134 42.4684C38.524 41.8635 37.9659 41.446 37.361 41.5355C36.9223 41.5994 36.5858 41.9104 36.4665 42.3065C36.4665 42.2852 36.458 42.2682 36.4537 42.2512L36.4409 42.8731L37.0714 47.2096C37.1012 47.4098 37.1864 47.5973 37.3142 47.7549L40.0448 51.0478C40.262 51.3119 40.5772 51.4482 40.8967 51.4482C41.1438 51.4482 41.3951 51.3672 41.5996 51.1968C42.0682 50.8092 42.1321 50.1148 41.7444 49.642L41.7487 49.6463Z" fill="#212121"/>
<path d="M35.6485 41.51C35.0436 41.4418 34.4983 41.8763 34.4259 42.4812L33.4887 50.6985C33.4206 51.3034 33.8551 51.8486 34.46 51.921C34.5026 51.9253 34.5452 51.9296 34.5878 51.9296C35.1416 51.9296 35.6187 51.5164 35.6826 50.9498L36.5856 43.018V43.0393L36.6027 42.4173C36.5217 41.9487 36.1426 41.5696 35.6485 41.51Z" fill="#212121"/>
<path d="M34.8349 39.0727C34.6006 39.0727 34.4089 38.881 34.4089 38.6467V36.9641C34.4089 36.7298 34.6006 36.5381 34.8349 36.5381C35.0692 36.5381 35.2609 36.7298 35.2609 36.9641V38.6467C35.2609 38.881 35.0692 39.0727 34.8349 39.0727Z" fill="#212121"/>
</g>
</g>
<defs>
<clipPath id="clip0_692_21099">
<rect width="40" height="40" fill="white" transform="matrix(-1 0 0 1 49 9.5)"/>
</clipPath>
<clipPath id="clip1_692_21099">
<rect width="12" height="23.4292" fill="white" transform="translate(30 28.5)"/>
</clipPath>
</defs>
</svg>
