<svg width="60" height="60" viewBox="0 0 60 60" fill="none" xmlns="http://www.w3.org/2000/svg">
<rect x="0.5" y="0.5" width="59" height="59" rx="7.5" fill="white"/>
<rect x="0.5" y="0.5" width="59" height="59" rx="7.5" stroke="#212121"/>
<g clip-path="url(#clip0_692_21008)">
<path d="M26.5183 49.8611C18.2713 49.8611 11.5681 43.1498 11.5681 34.9109V32.6359C11.5681 32.189 11.9337 31.8233 12.3806 31.8233C12.8275 31.8233 13.1931 32.189 13.1931 32.6359V34.9109C13.1931 42.2641 19.1732 48.2361 26.5183 48.2361C33.8635 48.2361 39.8436 42.256 39.8436 34.9109V25.9326C39.8436 25.4857 40.2092 25.1201 40.6561 25.1201C41.103 25.1201 41.4686 25.4857 41.4686 25.9326V34.9109C41.4686 43.1579 34.7572 49.8611 26.5183 49.8611Z" fill="#212121"/>
<path d="M12.2263 35.4801C8.47245 28.3137 10.6012 20.2536 10.6012 20.2536C11.4137 16.5729 14.7288 13.786 18.2145 13.786H35.8785C36.3985 13.786 39.0554 13.3391 38.9254 10.0078C38.9254 10.0078 43.1261 13.6885 42.7199 18.3442C42.7199 22.4718 39.4617 26.5262 35.8704 26.5262H21.1639C21.1639 26.5262 16.1588 26.2012 14.4688 30.2231" fill="#212121"/>
<path d="M34.408 33.9285C34.408 34.4404 34.7898 34.8629 35.2692 34.8629C35.7486 34.8629 36.1305 34.4485 36.1305 33.9285C36.1305 33.4085 35.7486 32.9941 35.2692 32.9941C34.7898 32.9941 34.408 33.4085 34.408 33.9285Z" fill="#212121"/>
<path d="M21.9358 33.9285C21.9358 34.4404 22.3177 34.8629 22.7971 34.8629C23.2764 34.8629 23.6583 34.4485 23.6583 33.9285C23.6583 33.4085 23.2764 32.9941 22.7971 32.9941C22.3177 32.9941 21.9358 33.4085 21.9358 33.9285Z" fill="#212121"/>
<path d="M28.0541 39.1606H27.2903C27.0628 39.1606 26.884 38.9818 26.884 38.7543C26.884 38.5268 27.0628 38.3481 27.2903 38.3481H28.0541C28.8828 38.3481 29.2484 38.2993 29.2728 37.2187V32.8555C29.2728 32.628 29.4516 32.4492 29.6791 32.4492C29.9066 32.4492 30.0853 32.628 30.0853 32.8555V37.2349C30.0366 39.0143 29.0128 39.1687 28.0541 39.1687V39.1606Z" fill="#212121"/>
<path d="M29.9878 44.8731H26.3233C25.1371 44.8731 24.1702 44.0037 24.1702 42.9312C24.1702 41.8586 25.1371 40.9893 26.3233 40.9893H29.9878C31.174 40.9893 32.1409 41.8586 32.1409 42.9312C32.1409 44.0037 31.174 44.8731 29.9878 44.8731ZM26.3233 41.7043C25.5514 41.7043 24.9258 42.2568 24.9258 42.9393C24.9258 43.6218 25.5514 44.1743 26.3233 44.1743H29.9878C30.7596 44.1743 31.3853 43.6218 31.3853 42.9393C31.3853 42.2568 30.7596 41.7043 29.9878 41.7043H26.3233Z" fill="#212121"/>
<path d="M22.9269 30.1903C23.3332 30.2146 23.5851 30.2796 23.6176 30.2878C23.8369 30.3446 23.9588 30.5721 23.902 30.7834C23.8451 31.0028 23.6257 31.1247 23.4063 31.0678C23.4063 31.0678 22.0088 30.7103 20.5788 31.604C20.3919 31.7259 20.14 31.6609 20.0181 31.474C19.8963 31.2872 19.9613 31.0353 20.1481 30.9134C21.2288 30.2471 22.2769 30.1578 22.9269 30.1903Z" fill="#212121"/>
<path d="M45.1899 37.0322C45.1899 37.0322 47.5137 40.9567 43.1099 43.2317" stroke="#212121" stroke-miterlimit="10" stroke-linecap="round"/>
<path d="M47.8307 34.5059C47.8307 34.5059 53.0227 42.5416 45.5557 46.336" stroke="#212121" stroke-miterlimit="10" stroke-linecap="round"/>
</g>
<defs>
<clipPath id="clip0_692_21008">
<rect width="40" height="40.0813" fill="white" transform="translate(10 10)"/>
</clipPath>
</defs>
</svg>
