<svg width="60" height="60" viewBox="0 0 60 60" fill="none" xmlns="http://www.w3.org/2000/svg">
<rect x="0.5" y="0.5" width="59" height="59" rx="7.5" fill="white"/>
<rect x="0.5" y="0.5" width="59" height="59" rx="7.5" stroke="#212121"/>
<g clip-path="url(#clip0_692_20777)">
<path d="M13.4245 41.3726C15.125 42.8309 17.0789 43.5399 19.4002 43.5399C20.244 43.5399 21.1616 43.4485 22.2075 43.2608C25.1352 42.7346 27.9025 42.4443 30.0008 42.4443C32.0991 42.4443 34.8647 42.7346 37.7924 43.2608C38.8383 43.4485 39.7559 43.5399 40.5998 43.5399C42.921 43.5399 44.875 42.8309 46.5754 41.3726C47.5845 40.5064 48.0625 39.5631 47.9935 38.5685C47.9278 37.6044 47.3535 36.9001 46.9251 36.5039C46.9861 29.9058 45.284 24.7884 41.8623 21.2912C40.8789 20.2853 39.7559 19.4303 38.5223 18.7373C38.5031 18.7245 38.4838 18.7132 38.463 18.7036C37.5935 18.2191 36.6678 17.8149 35.6989 17.494V16.4946C35.6989 15.946 35.2529 15.5 34.7027 15.5H25.2956C24.747 15.5 24.301 15.946 24.301 16.4946V17.494C23.3321 17.8149 22.4081 18.2191 21.5386 18.702C21.5161 18.7148 21.4937 18.7261 21.4728 18.7389C20.2408 19.4335 19.1194 20.287 18.1377 21.2912C14.7159 24.7884 13.0138 29.9058 13.0748 36.5039C12.6465 36.9017 12.0738 37.6044 12.0064 38.5685C11.939 39.5631 12.4155 40.5064 13.4245 41.3726ZM14.6116 37.8129C14.6966 37.7616 14.7624 37.7006 14.8282 37.6252C14.9902 37.4391 15.0768 37.1985 15.072 36.9498C14.9325 30.6694 16.4436 25.8696 19.5606 22.682C20.0066 22.2264 20.4878 21.8093 20.9964 21.4259V27.7626C20.9964 28.3128 21.4423 28.7572 21.9926 28.7572C22.5428 28.7572 22.9872 28.3128 22.9872 27.7626V20.1891C23.4107 19.9741 23.8502 19.7816 24.301 19.6084V30.6646C24.301 31.2148 24.747 31.6592 25.2956 31.6592C25.8443 31.6592 26.2918 31.2148 26.2918 30.6646V17.4908H33.7081V30.6646C33.7081 31.2148 34.1541 31.6592 34.7027 31.6592C35.2513 31.6592 35.6989 31.2148 35.6989 30.6646V19.6084C36.1497 19.7816 36.5876 19.9741 37.0128 20.1891V27.7626C37.0128 28.3128 37.4587 28.7572 38.0074 28.7572C38.556 28.7572 39.0036 28.3128 39.0036 27.7626V21.4259C39.5121 21.8093 39.995 22.2264 40.4393 22.682C43.5563 25.8696 45.0675 30.6694 44.9279 36.9498C44.9215 37.2274 45.0354 37.4985 45.2343 37.691C45.2824 37.7375 45.3258 37.7728 45.3819 37.8081C45.5359 37.9124 45.9835 38.3022 46.0091 38.7113C46.0332 39.1235 45.6257 39.5647 45.2792 39.8631C43.9381 41.0133 42.451 41.5507 40.5998 41.5507C39.8747 41.5507 39.0726 41.4689 38.1453 41.3021C35.1037 40.755 32.2114 40.455 30.0008 40.455C27.7902 40.455 24.8962 40.755 21.8546 41.3021C20.9274 41.4689 20.1253 41.5507 19.4002 41.5507C17.5489 41.5507 16.0634 41.0133 14.7207 39.8631C14.3742 39.5647 13.9667 39.1235 13.9924 38.7113C14.0165 38.3022 14.464 37.9124 14.6116 37.8129Z" fill="#212121"/>
</g>
<defs>
<clipPath id="clip0_692_20777">
<rect width="36" height="28.0399" fill="white" transform="translate(12 15.5)"/>
</clipPath>
</defs>
</svg>
