<?xml version="1.0" encoding="UTF-8"?>
<svg viewBox="0 0 423.61682 468.7084" xmlns="http://www.w3.org/2000/svg" xmlns:xlink="http://www.w3.org/1999/xlink">
 <defs>
  <filter id="h">
   <feGaussianBlur stdDeviation="2.4258"/>
  </filter>
  <filter id="ab">
   <feGaussianBlur stdDeviation="1.1062"/>
  </filter>
  <filter id="aa">
   <feGaussianBlur stdDeviation="1.6484"/>
  </filter>
  <filter id="z">
   <feGaussianBlur stdDeviation="11.7395"/>
  </filter>
  <filter id="g">
   <feGaussianBlur stdDeviation="1.0987"/>
  </filter>
  <filter id="f">
   <feGaussianBlur stdDeviation="3.0107"/>
  </filter>
  <filter id="y">
   <feGaussianBlur stdDeviation="2.4188"/>
  </filter>
  <filter id="e" x="-.2585" y="-.05895" width="1.517" height="1.1179">
   <feGaussianBlur stdDeviation=".8143"/>
  </filter>
  <linearGradient id="d">
   <stop stop-color="#f94848" offset="0"/>
   <stop stop-color="#8a2020" offset="1"/>
  </linearGradient>
  <linearGradient id="a">
   <stop stop-color="#fff" offset="0"/>
   <stop stop-color="#fff" stop-opacity="0" offset="1"/>
  </linearGradient>
  <linearGradient id="b">
   <stop stop-color="#f94848" offset="0"/>
   <stop stop-color="#a22626" offset="1"/>
  </linearGradient>
  <linearGradient id="x" x1="74.404" x2="82.228" y1="775.19" y2="790.77" gradientUnits="userSpaceOnUse" xlink:href="#a"/>
  <linearGradient id="w" x1="257.67" x2="269.68" y1="758.82" y2="762.72" gradientUnits="userSpaceOnUse" xlink:href="#a"/>
  <radialGradient id="u" cx="358.14" cy="490.9" r="175.26" gradientTransform="matrix(.1206 .13833 -.53736 .46847 402.04 702.3)" gradientUnits="userSpaceOnUse">
   <stop stop-color="#bb5151" stop-opacity=".6396" offset="0"/>
   <stop stop-color="#ff9595" stop-opacity=".6577" offset="1"/>
  </radialGradient>
  <radialGradient id="c" cx="266.91" cy="444.25" r="64.754" gradientTransform="matrix(.25648 -1.3877 2.046 .37294 -708.03 1223.8)" gradientUnits="userSpaceOnUse">
   <stop stop-color="#ff7a7a" stop-opacity=".9009" offset="0"/>
   <stop stop-color="#ff7e85" stop-opacity=".3243" offset="1"/>
  </radialGradient>
  <radialGradient id="n" cx="62.055" cy="255.54" r="27.633" gradientTransform="matrix(-1.1236 -.87134 1.7847 -2.3013 -281.48 1300.3)" gradientUnits="userSpaceOnUse">
   <stop stop-color="#f9485b" offset="0"/>
   <stop stop-color="#a22626" offset="1"/>
  </radialGradient>
  <radialGradient id="m" cx="175.19" cy="326.6" r="237.72" gradientTransform="matrix(-.29297 1.3175 -.85794 -.19078 551.56 509.72)" gradientUnits="userSpaceOnUse">
   <stop stop-color="#f97272" offset="0"/>
   <stop stop-color="#da0b0b" offset="1"/>
  </radialGradient>
  <radialGradient id="t" cx="1657.8" cy="117.33" r="111.07" gradientTransform="matrix(-.53852 .7571 -.86238 -.6134 1086 -375.6)" gradientUnits="userSpaceOnUse" xlink:href="#a"/>
  <radialGradient id="s" cx="1683.6" cy="117.54" r="111.07" gradientTransform="matrix(-.40574 .59916 -.21514 -.14569 768.2 -176.49)" gradientUnits="userSpaceOnUse" xlink:href="#a"/>
  <radialGradient id="r" cx="1667.9" cy="93.018" r="111.07" gradientTransform="matrix(-.29663 .44099 -.11466 -.08631 729.01 83.629)" gradientUnits="userSpaceOnUse" xlink:href="#a"/>
  <radialGradient id="q" cx="1656.3" cy="121.73" r="111.07" gradientTransform="matrix(-.39576 .46956 -1.068 -.90015 1061.4 112.65)" gradientUnits="userSpaceOnUse" xlink:href="#a"/>
  <radialGradient id="p" cx="1662.5" cy="11.359" r="111.07" gradientTransform="matrix(.52852 -.76412 .69858 .48319 -517.92 2284.8)" gradientUnits="userSpaceOnUse" xlink:href="#a"/>
  <radialGradient id="o" cx="474.26" cy="112.23" r="59.109" gradientTransform="matrix(.5109 -.48159 1.3132 1.3931 17.972 784.67)" gradientUnits="userSpaceOnUse" xlink:href="#b"/>
  <radialGradient id="l" cx="229.21" cy="238.62" r="102.53" gradientTransform="matrix(.71941 .69458 -.66787 .69174 272.62 356.89)" gradientUnits="userSpaceOnUse" xlink:href="#d"/>
  <radialGradient id="k" cx="127.34" cy="285.55" r="54.928" gradientTransform="matrix(.58893 -.65738 1.644 1.4728 -368.71 331.21)" gradientUnits="userSpaceOnUse" xlink:href="#b"/>
  <radialGradient id="j" cx="199.1" cy="314.02" r="102.53" gradientTransform="matrix(.21236 .15122 -.3782 .53111 159.01 673.38)" gradientUnits="userSpaceOnUse" xlink:href="#d"/>
  <radialGradient id="i" cx="149.52" cy="350.41" r="54.928" gradientTransform="matrix(.52731 -.38841 .84257 1.1439 42.937 554.85)" gradientUnits="userSpaceOnUse" xlink:href="#b"/>
  <radialGradient id="v" cx="1732.8" cy="76.466" r="111.07" gradientTransform="matrix(.25675 -.42357 .11825 .08037 -260.84 1586.6)" gradientUnits="userSpaceOnUse" xlink:href="#a"/>
 </defs>
 <g transform="translate(-33.316 -583.47)">
  <path transform="matrix(.96211 .13629 -.13879 .9798 190.04 -146.72)" d="m251.93 741.4c-11.016 10.858-0.68454-3.8609-75.4 97.647l-108.28-73.562-53.625 91.438 2.4688 27.938s85.15 74.092 103.14 86.2c-8.4551 14.664-50.384 59.685-74.912 96.431 22.734 18.599 84.495 74.053 102.65 87.953 15.676-10.308 66.387-89.225 74.595-101.03 17.62 10.452 83.059 62.811 107.14 74.561 18.194-18.406 43.5-51.354 63.887-87.134-0.30688-9.807 0.0293-22.724-3.3614-34.389-25.451-17.784-62.112-41.597-86.453-63.605 12.816-15.774 52.754-66.29 65.002-82.758 0 0 0.89872-19.197 0.375-27.719-42.874-38.441-73.719-71.201-117.22-91.969z" fill-opacity=".834" filter="url(#z)"/>
  <path d="m422.49 920.2c1.6561-11.993 1.9731-22.331 1.4767-36.047-27.381-36.859-61.695-61.978-90.686-97.034l-5.0236 40.1z" fill="url(#i)"/>
  <path d="m164.2 810.71c-0.18808-13.188-2.5926-19.89-4.7153-32.358-20.434 20.843-69.731 64.99-85.589 88.668-3.5766 12.916-2.8121 20.371-1.606 36.911l91.911-93.221z" fill="url(#j)"/>
  <path d="m237.33 733.56c2.0209-15.631 1.8222-30.028 3.8431-45.659-29.337-28.856-60.154-63.632-94.671-89.282l-5.0237 40.1 95.851 94.842z" fill="url(#k)"/>
  <path d="m330.92 642.97c2.6447-19.786 0.58167-29.9-5.0819-39.902-16.647 9.406-74.192 70.759-85.151 84.585-1.4738 13.591-2.5248 29.697-3.3498 45.906 31.4-30.197 86.969-85.241 93.583-90.59z" fill="url(#l)"/>
  <path d="m331.08 642.78c-31.732 23.979-54.802 47.174-93.744 90.777-32.498-34.887-59.492-62.462-95.851-94.842-27.188 19.555-75.641 64.575-82.657 89.911 25.44 25.002 66.186 73.737 91.6 92.85-25.17 25.233-60.308 59.175-78.153 82.442 14.185 27.133 68.706 85.069 90.053 98.608 28.903-19.913 61.339-60.258 84.756-85.255 15.727 16.875 68.753 76.608 89.652 88.674 10.919-2.0292 68.569-60.83 85.824-85.828-21.99-25.806-51.649-55.367-91.746-94.021 37.625-34.825 70.042-66.572 94.029-89.98-33.052-39.243-66.576-69.13-93.764-93.337z" fill="url(#m)"/>
  <path d="m141.63 638.69c2.6587-13.298 3.6394-25.935 4.8733-40.074-20.449 16.776-61.288 63.681-82.808 93.685-4.0545 12.027-4.231 20.719-4.8975 36.33 21.287-23.466 52.786-61.4 82.833-89.942z" fill="url(#n)"/>
  <path d="m424.7 736.15c3.0451-10.953 3.1965-21.244 3.5551-31.629-4.9795-8.2842-66.519-79.522-102.4-101.41 4.2342 7.1967 6.7498 29.372 5.02 39.851 23.343 19.024 71.799 68.205 93.822 93.189z" fill="url(#o)"/>
  <path transform="matrix(.99012 .14025 -.14025 .99012 181.6 -158.8)" d="m333.19 825.83c-94.899 144.82-113.56 148.34-286.02 248.49l14.183 14.631c139.29-97.043 212.73-146.36 286.58-251.37z" fill="url(#u)" filter="url(#aa)" opacity=".6681"/>
  <path transform="matrix(.99012 .14025 -.14025 .99012 180.61 -161.02)" d="m72.986 796.79c34.322 18.086 71.18 48.3 108.49 81.331" fill="none" filter="url(#h)" stroke="url(#t)" stroke-width="5"/>
  <path transform="matrix(.99012 .14025 -.14025 .99012 182.09 -162.74)" d="m74.327 797.37c-27.05 27.727-48.333 66.33-71.229 102.35" fill="none" filter="url(#ab)" stroke="url(#s)" stroke-width="7"/>
  <path transform="matrix(1.4826 .21001 -.19324 1.3642 146.63 -503.06)" d="m230.9 803.94c-22.398 23.561-44.708 59.352-54.253 74.579" fill="none" filter="url(#g)" stroke="url(#r)" stroke-width="7"/>
  <path transform="matrix(.99012 .14025 -.14025 .99012 181.23 -158.67)" d="m71.527 756.13c3.4584 13.18 2.7776 28.359 1.8874 40.208" fill="none" filter="url(#e)" stroke="url(#x)" stroke-linecap="round" stroke-width="5"/>
  <path transform="matrix(.99012 .14025 -.14025 .99012 181.93 -158.55)" d="m250.79 734.82c4.408 9.1563 8.9427 25.893 8.0525 37.742" fill="none" filter="url(#e)" stroke="url(#w)" stroke-linecap="round" stroke-width="5"/>
  <path transform="matrix(.99012 .14025 -.14025 .99012 182.46 -158.43)" d="m258.91 772.5c34.322 18.086 70.368 46.972 107.68 80.004" fill="none" filter="url(#y)" stroke="url(#q)" stroke-width="5"/>
  <path transform="matrix(.99012 .14025 -.14025 .99012 181.46 -156.8)" d="m284.68 953.69c33.989 19.254 66.434 43.56 104.9 78.982" fill="none" filter="url(#h)" stroke="url(#p)" stroke-width="5"/>
  <path transform="matrix(.42516 .29001 -.26187 .49119 487.86 417.75)" d="m340.59 833.62c-12.012-2.0407-81.592 42.344-98.857 80.728-15.986 35.539-108.3 58.639-117.64 85.24 39.791 12.774 95.538 24.726 152.24 27.943 29.869-56.449 55.525-138.39 64.263-193.91z" fill="url(#c)" filter="url(#f)"/>
  <path transform="matrix(.42516 .29001 -.26187 .49119 314.05 413.33)" d="m323.17 884.26c-12.012-2.0407-82.528 16.618-99.794 55.001-15.986 35.539-89.947 33.729-99.287 60.33 39.791 12.774 95.538 24.726 152.24 27.943 18.707-56.568 33.706-85.502 46.845-143.27z" fill="url(#c)" filter="url(#f)"/>
  <path transform="matrix(1.4826 .21001 -.19324 1.3642 -35.873 -322.53)" d="m230.9 803.94c-20.538 27.614-33.278 48.986-43.666 67.959" fill="none" filter="url(#g)" stroke="url(#v)" stroke-width="7"/>
 </g>
</svg>
