<?xml version="1.0" standalone="no"?>
<!DOCTYPE svg PUBLIC "-//W3C//DTD SVG 20010904//EN"
 "http://www.w3.org/TR/2001/REC-SVG-20010904/DTD/svg10.dtd">
<svg version="1.0" xmlns="http://www.w3.org/2000/svg"
 viewBox="0 0 2000.000000 2000.000000" style="enable-background:new 0 0 1013.4 903.5;" xml:space="preserve"
>
<style type="text/css">
	.st0{fill:#F2F2F2;}
	.st1{fill:#3F3D56;}
	.st2{opacity:0.1;enable-background:new    ;}
	.st3{fill:none;stroke:#3F3D56;stroke-miterlimit:10;}
	.st4{fill:#F5F6FA;}
	.st5{fill:#46455B;}
	.st6{fill:#A8A8A8;}
	.st7{opacity:0.2;enable-background:new    ;}
	.st8{fill:#A0616A;}
	.st9{fill:#605D82;}
	.st10{fill:#535070;}
	.st11{fill:#FFFFFF;}
	.st12{fill:#57B894;}
</style>
<g transform="translate(0.000000,2000.000000) scale(0.100000,-0.100000)"
fill="#000000" stroke="none">
<path class="st0" d="M10150 17650 c0 -5 -12 -21 -27 -36 -91 -87 -322 -127 -511 -88 -100
20 -158 46 -204 92 l-38 36 0 -920 0 -920 28 -27 c144 -138 587 -139 735 -2
l27 26 0 924 c0 509 -2 925 -5 925 -3 0 -5 -4 -5 -10z"/>
<path class="st1" d="M8812 16859 c-71 -86 -332 -134 -519 -95 -89 19 -151 46 -197 86
l-36 32 0 -919 0 -920 23 -21 c60 -56 224 -102 365 -102 150 1 319 48 371 104
l21 22 -2 920 -3 920 -23 -27z"/>
<path class="st2" d="M7510 16115 c-36 -67 -172 -116 -345 -122 -183 -7 -338 35 -400 108
l-25 31 2 -929 3 -928 48 -32 c75 -50 164 -74 297 -80 159 -7 205 3 333 78
l107 62 0 918 c0 506 -1 919 -3 919 -2 0 -10 -11 -17 -25z"/>
<path class="st3" d="M10555 13962 c-94 -52 -490 -285 -498 -292 -5 -5 19 -24 52 -44 l62
-36 279 162 c153 90 276 166 274 170 -4 7 -108 68 -115 68 -2 0 -26 -13 -54
-28z"/>
<path class="st4" d="M10565 13690 c-148 -88 -269 -163 -268 -167 1 -4 28 -22 60 -40 l58
-31 277 161 c153 89 278 164 278 167 0 7 -115 70 -126 69 -5 0 -130 -72 -279
-159z"/>
<path class="st5" d="M9780 13643 l0 -68 392 -225 c215 -124 466 -268 557 -321 91 -53 621
-358 1176 -678 556 -321 1071 -618 1145 -661 74 -43 234 -135 355 -206 121
-70 225 -127 230 -127 10 1 713 408 728 422 4 5 7 34 5 65 l-3 57 -359 -211
c-197 -116 -364 -209 -370 -207 -6 3 -227 129 -491 282 -264 153 -628 363
-810 468 -181 105 -483 279 -670 387 -187 109 -603 349 -925 535 -679 392
-882 510 -927 537 l-33 20 0 -69z"/>
<path class="st6" d="M10890 13599 c-102 -60 -225 -132 -273 -160 -48 -29 -84 -55 -80 -59
4 -4 33 -21 63 -37 l55 -31 277 162 c153 88 278 163 278 166 0 7 -115 70 -126
69 -5 0 -92 -50 -194 -110z"/>
<path class="st0" d="M11155 13474 c-88 -52 -211 -124 -273 -160 -63 -37 -110 -70 -105
-74 4 -4 33 -20 63 -37 l55 -30 135 78 c74 43 199 116 277 161 79 46 143 85
143 88 0 9 -110 70 -123 69 -7 0 -84 -43 -172 -95z"/>
<path class="st0" d="M11288 13272 c-147 -87 -269 -160 -272 -163 -5 -5 105 -72 119 -72
11 0 555 318 555 325 0 9 -107 68 -122 67 -7 0 -133 -71 -280 -157z"/>
<path class="st0" d="M11690 13226 c-58 -34 -178 -105 -267 -157 -90 -51 -163 -97 -163
-101 0 -11 109 -70 123 -66 23 5 547 312 547 320 0 11 -102 68 -120 67 -8 0
-62 -29 -120 -63z"/>
<path class="st0" d="M11777 12996 c-152 -88 -277 -164 -277 -168 0 -3 25 -20 56 -38 50
-28 60 -30 83 -20 14 6 122 68 241 137 118 69 235 136 258 150 49 28 51 24
-38 75 l-45 26 -278 -162z"/>
<path class="st0" d="M12129 12921 c-91 -53 -216 -125 -277 -161 -62 -36 -112 -68 -112
-72 0 -3 26 -21 58 -38 49 -26 61 -29 82 -20 14 7 141 80 283 162 223 130 255
152 240 162 -10 7 -38 24 -63 38 l-45 26 -166 -97z"/>
<path class="st0" d="M12464 12837 c-39 -23 -164 -96 -277 -162 -114 -66 -207 -123 -207
-126 0 -3 27 -21 61 -39 l60 -32 77 45 c401 231 482 280 475 287 -4 4 -33 21
-63 38 l-56 31 -70 -42z"/>
<path class="st0" d="M12498 12577 c-153 -89 -278 -164 -278 -167 0 -3 27 -20 60 -38 51
-29 62 -31 82 -21 51 27 524 302 531 309 7 6 -104 82 -116 80 -1 -1 -127 -74
-279 -163z"/>
<path class="st0" d="M12738 12438 c-182 -107 -274 -166 -268 -173 5 -5 33 -23 62 -39 l54
-28 74 44 c41 25 166 98 278 162 111 65 202 119 202 121 0 4 -116 75 -121 75
-2 -1 -129 -74 -281 -162z"/>
<path class="st0" d="M13025 12325 c-126 -74 -252 -147 -279 -163 l-49 -29 62 -37 c53 -31
65 -34 84 -25 109 57 536 313 532 319 -5 7 -111 71 -117 70 -2 -1 -106 -61
-233 -135z"/>
<path class="st0" d="M13351 12235 c-79 -47 -204 -120 -278 -162 -149 -86 -147 -80 -52
-128 l46 -24 274 159 c150 88 275 163 276 167 2 7 -108 74 -119 73 -2 -1 -68
-39 -147 -85z"/>
<path class="st0" d="M13629 12117 c-58 -34 -183 -107 -277 -162 -95 -54 -168 -102 -164
-106 4 -4 32 -21 62 -38 l56 -31 274 160 c151 88 276 164 278 169 2 6 -108 72
-119 71 -2 -1 -52 -29 -110 -63z"/>
<path class="st0" d="M8775 11160 c-940 -545 -1714 -990 -1720 -990 -6 0 -604 344 -1328
764 l-1317 764 2 -196 3 -197 1315 -763 c723 -419 1322 -761 1330 -759 12 3
3416 1981 3428 1992 1 1 1 86 0 188 l-3 186 -1710 -989z"/>
<path  class="st0" d="M13825 11952 c-82 -49 -207 -121 -277 -162 -140 -81 -136 -71 -47
-123 l46 -26 274 159 c150 87 275 163 277 168 3 9 -102 73 -117 72 -3 -1 -73
-40 -156 -88z"/>
<path class="st1" d="M11420 11040 c-212 -27 -398 -50 -415 -52 -31 -3 -34 -1 810 -491 66
-38 156 -91 200 -117 44 -26 90 -52 102 -59 17 -9 108 -1 435 39 227 28 426
54 441 58 25 6 -31 41 -540 337 -472 275 -573 330 -607 332 -23 0 -214 -21
-426 -47z"/>
<path class="st0" d="M9785 10090 c-209 -27 -391 -50 -405 -52 -28 -3 -30 -2 260 -170 91
-53 323 -189 517 -301 l352 -206 443 54 c244 30 445 55 448 55 5 0 -119 73
-765 449 -349 203 -384 221 -425 220 -25 -1 -216 -23 -425 -49z"/>
<path class="st0" d="M14105 9586 l-730 -422 -3 -638 c-1 -392 1 -636 7 -634 5 1 107 59
225 128 l216 125 0 190 0 189 42 128 42 128 302 170 c310 175 344 189 375 152
18 -21 249 -156 255 -149 2 2 3 240 2 529 l-3 525 -730 -421z"/>
<path class="st0" d="M4682 9262 l3 -136 220 -127 c121 -71 224 -128 228 -128 4 -1 6 59 5
131 l-3 133 -228 132 -228 132 3 -137z"/>
<path class="st0" d="M8270 9154 c-190 -24 -389 -49 -443 -55 -53 -7 -96 -13 -95 -15 2 -1
59 -35 128 -75 195 -113 424 -246 550 -319 63 -37 176 -102 250 -145 74 -42
155 -90 180 -105 l45 -28 435 54 c239 30 442 54 450 54 8 0 -7 13 -35 28 -27
16 -282 163 -565 329 -283 165 -524 304 -535 310 -14 7 -119 -3 -365 -33z"/>
<path class="st0" d="M5490 8788 l1 -133 226 -130 c124 -71 230 -131 235 -133 4 -2 8 56 8
130 l0 133 -226 130 c-123 72 -229 132 -234 133 -6 2 -10 -48 -10 -130z"/>
<path class="st0" d="M12148 8447 l-728 -420 0 -639 0 -638 23 14 c12 8 337 197 722 421
385 224 703 410 708 414 4 4 6 291 5 638 l-3 630 -727 -420z"/>
<path class="st0" d="M13897 8643 c-10 -38 -20 -77 -23 -89 -5 -18 9 -29 98 -79 57 -32
113 -65 126 -73 l22 -14 0 103 0 104 -99 58 c-55 31 -101 57 -103 57 -2 0 -11
-30 -21 -67z"/>
<path class="st0" d="M14405 8453 c-4 -10 -9 -61 -12 -113 -4 -82 -2 -100 16 -135 16 -30
18 -41 8 -47 -6 -4 -30 -18 -52 -30 -35 -21 -40 -28 -43 -66 -2 -23 -5 -42 -7
-42 -12 0 -159 93 -204 128 -106 84 -196 80 -230 -11 -9 -22 -8 -27 4 -27 12
0 15 -15 15 -68 0 -57 5 -80 30 -130 33 -65 95 -134 143 -159 51 -26 89 -20
166 24 l72 42 35 -21 c31 -18 38 -19 61 -7 14 8 36 29 48 47 49 72 45 72 229
-34 97 -56 163 -100 159 -107 -3 -5 -1 -7 5 -3 6 3 16 0 24 -7 13 -14 21 -17
39 -17 5 0 7 -4 4 -10 -3 -5 3 -10 14 -10 21 0 111 -50 111 -62 0 -4 -8 -9
-18 -12 -10 -4 -32 -20 -48 -37 -26 -27 -29 -37 -29 -97 1 -84 34 -160 100
-231 79 -85 144 -101 222 -55 25 14 46 24 47 22 1 -1 9 -23 16 -47 32 -102
132 -199 212 -208 38 -4 54 2 133 47 115 66 123 74 138 129 l12 46 5 -88 5
-88 46 -26 46 -26 76 43 c60 34 77 49 79 69 2 21 27 39 143 107 77 45 143 83
148 83 4 1 7 -8 7 -19 0 -11 3 -20 6 -20 4 0 40 19 80 42 l74 42 0 128 0 127
-31 17 -32 16 -66 -65 c-70 -70 -279 -198 -355 -218 -152 -41 -249 105 -202
304 13 56 13 59 -8 71 -11 7 -102 60 -201 116 -192 110 -271 156 -730 422 -71
42 -206 119 -300 173 -93 53 -174 101 -179 106 -15 13 -23 11 -31 -8z m-316
-399 c82 -73 107 -194 50 -236 -21 -16 -30 -17 -55 -8 -71 27 -133 119 -134
199 0 88 68 110 139 45z m1002 -574 c19 0 93 -77 110 -115 23 -49 24 -113 3
-143 -37 -54 -137 -4 -183 92 -21 42 -28 120 -13 142 12 17 46 34 60 29 8 -3
18 -5 23 -5z m372 -214 c93 -38 158 -199 106 -262 -18 -21 -70 -17 -109 10
-81 54 -124 204 -71 247 28 23 32 23 74 5z"/>
<path class="st0" d="M6312 8308 l3 -132 220 -127 c121 -71 224 -128 228 -128 4 -1 6 59 5
131 l-3 133 -220 127 c-121 70 -224 128 -228 128 -4 0 -6 -59 -5 -132z"/>
<path class="st0" d="M2980 8033 l0 -260 873 -503 c479 -277 876 -506 880 -510 6 -6 -556
-339 -691 -409 -20 -11 -42 -1 -220 102 -223 129 -653 378 -1002 579 -544 314
-937 541 -967 560 l-33 20 0 -464 1 -463 902 -520 c496 -286 990 -571 1099
-634 l198 -113 67 40 c166 97 401 232 407 232 3 0 7 -127 8 -282 l3 -282 1098
-634 1098 -634 182 105 c224 129 467 270 507 294 l30 17 0 258 c0 142 2 258 4
258 2 0 102 -57 222 -127 l218 -126 36 20 c19 11 107 61 195 112 88 51 235
136 328 189 l167 96 0 459 c0 252 -3 456 -7 454 -5 -2 -161 -92 -348 -200
-187 -108 -347 -198 -355 -202 -9 -3 -199 101 -480 263 -256 148 -748 432
-1095 632 -346 199 -633 366 -638 369 -4 4 47 38 113 75 l120 68 0 279 0 278
-52 -31 c-148 -86 -640 -369 -651 -374 -8 -3 -346 187 -753 422 -406 234 -887
512 -1069 616 -181 105 -345 199 -362 210 l-33 20 0 -259z m1675 -885 l300
-173 3 -148 c1 -81 -1 -147 -5 -146 -5 0 -161 89 -348 197 l-340 198 -3 134
c-1 74 0 140 3 147 4 11 14 8 47 -11 24 -14 178 -103 343 -198z m-1203 -656
l343 -199 3 -138 c1 -76 -1 -142 -5 -146 -4 -4 -162 81 -350 189 l-342 197 -1
148 c0 81 2 147 4 147 3 0 159 -89 348 -198z m1441 113 l67 -39 0 -104 0 -104
-52 31 c-29 17 -79 46 -110 63 l-58 33 0 103 0 104 43 -24 c23 -13 72 -42 110
-63z m481 -222 l150 -86 68 37 68 37 0 -78 0 -78 398 -229 c571 -330 1066
-616 1225 -708 76 -45 135 -84 130 -88 -10 -10 -702 -410 -708 -410 -3 0 -101
55 -218 123 -116 68 -302 175 -412 239 -110 63 -344 199 -520 300 -330 191
-936 541 -1014 585 -53 31 -57 25 96 111 l102 57 3 77 3 77 66 -38 65 -38 155
89 c85 49 158 93 164 99 5 5 14 9 19 9 6 0 78 -39 160 -87z m-1834 -348 c289
-166 260 -138 260 -251 0 -59 -4 -94 -11 -94 -5 0 -113 60 -240 132 l-229 132
0 104 c0 57 3 101 8 99 4 -2 99 -57 212 -122z m3813 -455 l287 -165 0 -148 c0
-82 -4 -147 -8 -145 -5 2 -160 91 -345 198 l-337 194 0 149 0 148 58 -33 c32
-18 187 -107 345 -198z m-1218 -648 l340 -197 3 -149 c2 -117 0 -147 -10 -143
-7 3 -164 92 -348 199 l-335 194 -3 147 c-1 81 1 147 5 147 5 -1 161 -90 348
-198z m1399 137 l106 -61 0 -103 0 -103 -110 61 -109 62 -1 103 c0 56 2 102 4
102 2 0 52 -27 110 -61z m-1286 -609 l232 -134 0 -99 c0 -78 -3 -98 -14 -95
-7 2 -115 62 -239 133 l-227 130 0 103 c0 57 3 101 8 99 4 -2 112 -64 240
-137z"/>
<path class="st0" d="M7120 7839 l0 -134 48 -26 c26 -15 129 -74 230 -132 l183 -106 -3
136 -3 135 -215 125 c-118 69 -221 127 -227 130 -10 4 -13 -26 -13 -128z"/>
<path class="st0" d="M7930 7367 l0 -132 230 -133 c126 -72 232 -132 235 -132 3 0 4 60 3
132 l-3 133 -229 132 c-126 73 -230 133 -232 133 -2 0 -4 -60 -4 -133z"/>
<path class="st0" d="M10410 6201 l0 -239 35 -21 35 -20 0 242 0 243 -29 17 c-16 9 -32 17
-35 17 -3 0 -6 -108 -6 -239z"/>
<path class="st0" d="M10580 6102 l0 -238 115 -67 115 -66 0 242 0 243 -29 17 c-16 9 -32
17 -35 17 -3 0 -7 -90 -8 -200 l-3 -200 -42 26 -43 25 0 204 0 204 -30 16
c-16 8 -31 15 -35 15 -3 0 -5 -107 -5 -238z"/>
<path class="st0" d="M10902 5918 l3 -242 33 -19 32 -19 0 244 0 244 -35 17 -35 17 2 -242z"/>
<path class="st0" d="M12080 5635 l-305 -173 -5 -208 c-4 -169 -8 -209 -20 -216 -11 -7
-86 32 -290 150 l-275 160 -3 -46 c-2 -27 1 -48 7 -50 6 -2 11 -18 11 -37 0
-42 18 -58 44 -39 11 8 26 14 34 14 22 0 314 -171 341 -200 13 -14 20 -18 16
-10 -8 13 -5 12 15 -1 22 -14 25 -25 28 -87 3 -76 3 -76 76 -116 l48 -27 32
35 c17 19 44 37 59 41 35 7 28 -9 -13 -30 -149 -77 5 -434 186 -435 31 0 59
11 120 48 l79 47 3 55 c3 53 4 56 45 79 260 146 587 338 587 344 0 5 -21 -3
-46 -17 -60 -33 -66 -33 -62 6 3 27 11 37 56 62 l52 30 0 91 c0 72 -9 129 -44
279 -24 103 -46 189 -48 190 -15 13 -409 236 -415 235 -4 0 -145 -78 -313
-174z m-73 -952 c44 -32 83 -101 89 -159 5 -41 2 -54 -16 -76 -24 -31 -48 -35
-88 -14 -110 58 -164 244 -79 275 28 11 55 3 94 -26z"/>
<path class="st0" d="M9180 5448 l0 -244 35 -17 35 -17 -2 240 -3 241 -32 20 -33 21 0
-244z"/>
<path class="st0" d="M9340 5357 l0 -243 112 -64 c61 -36 115 -66 120 -68 4 -2 8 104 8
236 l0 240 -32 21 -33 20 -3 -199 c-1 -110 -5 -200 -8 -200 -3 0 -25 12 -50
26 l-44 26 0 203 0 203 -35 21 -35 20 0 -242z"/>
<path class="st0" d="M9670 5167 l0 -243 29 -17 c16 -9 32 -17 35 -17 3 0 6 108 6 239 l0
239 -35 21 -35 20 0 -242z"/>
<path class="st0" d="M9090 4970 l0 -120 41 -21 c41 -20 42 -20 75 -3 30 16 63 13 38 -4
-23 -15 -34 -53 -34 -114 0 -105 65 -220 159 -280 66 -41 96 -37 212 28 77 44
97 59 89 69 -6 8 -10 42 -8 79 l3 66 152 -87 153 -88 0 -37 c0 -42 14 -50 51
-29 25 14 30 13 120 -39 256 -147 309 -181 309 -204 0 -12 -6 -28 -12 -35 -10
-11 -10 -13 0 -7 9 5 12 -5 12 -37 0 -45 0 -45 62 -80 l62 -35 18 28 c20 33
47 50 80 50 20 0 17 -4 -16 -24 -51 -30 -65 -59 -66 -128 0 -114 76 -244 171
-292 29 -14 62 -26 73 -26 22 0 159 71 189 97 12 11 17 31 17 67 l0 51 63 34
c71 39 500 285 535 308 13 8 21 17 18 20 -3 3 -20 -4 -39 -16 -46 -28 -57 -27
-57 9 0 26 7 34 50 58 l50 27 0 108 c0 92 -6 135 -41 285 -23 97 -42 182 -42
188 0 6 -11 12 -23 12 -13 0 -103 46 -201 102 -98 57 -183 103 -189 103 -6 0
-149 -77 -318 -173 l-306 -172 0 -209 c0 -198 -1 -208 -20 -214 -24 -8 56 -52
-742 412 -373 216 -681 393 -683 393 -3 0 -5 -54 -5 -120z m287 -230 c73 -44
125 -159 102 -227 -39 -119 -219 14 -219 162 0 78 51 106 117 65z m1410 -822
c97 -93 105 -248 13 -248 -96 0 -198 186 -145 266 15 23 22 26 57 21 27 -4 52
-16 75 -39z"/>
</g>
</svg>
